<svg width="320" height="496" fill="none" xmlns="http://www.w3.org/2000/svg"><path opacity=".49" d="M291.254 201.429c17.061 0 30.892-13.831 30.892-30.892s-13.831-30.892-30.892-30.892c-17.062 0-30.893 13.831-30.893 30.892s13.831 30.892 30.893 30.892z" fill="#D8F1F0"/><path d="M291.254 198.415c15.396 0 27.878-12.481 27.878-27.878s-12.482-27.879-27.878-27.879c-15.397 0-27.879 12.482-27.879 27.879 0 15.397 12.482 27.878 27.879 27.878zM46.243.954c-.698.096-.808.206-.904.905-.005.02-.03.02-.035 0-.095-.699-.206-.81-.904-.905-.02-.005-.02-.03 0-.035.698-.095.809-.206.904-.904.005-.02.03-.02.035 0 .096.698.206.809.904.904.02.005.02.035 0 .035z" fill="#D8F1F0"/><g opacity=".32"><path opacity=".52" d="M6.583 195.837c5.745-.465 11.456.995 16.861 3.809 1.309.681 2.213.174 3.155-.775 4.985-5.027 10.908-8.401 17.837-9.997 4.543-1.044 9.157-.681 13.727-.522 2.59.091 4.145-.919 5.4-2.92 3.36-5.337 8.47-8.404 14.109-10.734 1.793-.742 3.623-1.547 5.514-1.861 4.517-.757 9.112-.617 13.662-.382 6.862.355 12.762 3.343 18.156 7.39 4.924 3.692 8.075 8.673 10.083 14.426.908 2.591 1.551 2.92 3.972 1.623 7.277-3.892 15.031-4.395 23.053-3.556 2.655.277 5.167.901 7.663 1.759 1.426.488 2.376.133 2.826-1.475 3.79-13.537 13.019-21.215 26.495-23.916 6.067-1.214 12.376-1.108 18.31.507 4.365 1.192 8.847 2.765 12.191 6.336 2.303 2.458 2.689 2.201 5-.25 3.563-3.779 7.796-6.646 12.663-8.586 4.373-1.744 8.874-2.228 13.549-2.349 5.719-.147 11.131.757 16.336 3.056 3.219 1.423 6.305 3.053 8.828 5.576 1.376 1.376 2.897 2.152 4.996 2.076 4.388-.159 8.794-.261 13.087 1.067 3.609 1.115 7.088 2.507 10.311 4.478 1.494.911 2.583.548 3.597-.7 3.676-4.531 8.26-7.659 13.779-9.702 4.936-1.826 9.925-2.613 15.122-2.363 1.418.068 2.36-.519 3.143-1.631 3.487-4.955 7.807-8.99 13.333-11.577 4.349-2.035 8.9-3.405 13.764-3.431 5.023-.026 10.019-.148 14.925 1.471 9.497 3.136 16.597 8.843 20.579 18.167.897 2.095 1.415 4.285 1.873 6.498.537 2.606.923 2.954 3.657 2.962 5.674.015 11.344 0 17.017.011 2.81.004 3.96 1.176 3.979 4.005.004.632.008 1.26-.004 1.892-.041 2.159-1.354 3.472-3.51 3.525-6.483.166-12.947-.583-19.437-.428-1.714.042-2.633.553-3.192 2.209-1.744 5.182-4.672 9.698-9.002 12.993-5.916 4.501-12.467 7.742-20.149 7.905-1.324.026-2.659.128-3.968-.019-2.33-.261-3.759.915-5.042 2.644-5.942 8.003-13.745 12.845-23.757 14.025-7.666.904-14.989-.016-21.998-3.393-1.516-.73-3.097-1.26-4.444-2.345-.949-.764-1.861-.295-2.663.499-1.914 1.906-3.695 3.96-5.908 5.545-2.852 2.046-5.961 3.571-9.179 4.985-6.453 2.833-13.254 2.205-19.843 1.691-6.653-.518-12.61-3.68-17.58-8.284-1.29-1.195-2.557-1.751-4.335-1.796-6.229-.155-12.425.386-18.616.847-5.92.439-11.843.923-17.743 1.524-8.257.84-16.514 1.12-24.801 1.146-3.786.012-7.334-.73-10.852-1.959-1.966-.688-2.394-.423-2.908 1.562-2.686 10.398-9.294 17.52-18.988 21.597-3.733 1.57-7.791 2.701-12.054 2.603-5.984-.14-11.982.159-17.959-.083-8.65-.352-17.296-.806-25.95-1.143-5.008-.196-10.016-.529-15.031-.749-8.337-.37-16.665-.839-25.002-1.18a395.484 395.484 0 00-9.977-.264c-6.642-.106-13.114-.938-19.185-3.862-1.448-.696-2.693-.409-3.892.813-5.616 5.719-12.451 9.335-20.398 10.095-8.99.859-17.883.219-25.72-5.133-1.237-.843-2.405-1.8-3.548-2.772-.4-.344-.707-.76-1.278-.526-.549.227-.613.745-.617 1.271-.003 1.135 0 2.269-.018 3.4-.05 3.022-1.264 4.297-4.248 4.244-5.099-.094-10.182.352-15.273.488-6.34.167-12.679.458-19.018.726-6.653.28-13.31.492-19.963.761-6.275.253-12.55.495-18.828.748-6.718.277-13.435.519-20.149.787-2.568.102-5.14.227-7.716.291-1.256.031-2.5-.087-3.128-1.293-.624-1.195-.034-2.375.658-3.355 3.211-4.55 7.326-7.784 12.826-9.301 14.373-3.96 28.882-7.455 43.043-12.164 6.903-2.296 13.749-4.773 20.674-6.997 3.862-1.241 7.762-2.519 11.915-2.391 2.526.08 4.905.927 7.334 1.506 1.842.438 3.51-.708 3.086-2.478-.635-2.632.53-4.758 1.2-7.08 1.327-4.611 3.944-8.473 7.269-11.733 7.171-7.024 15.784-10.61 26.314-10.084zm53.414 52.091c8.03.378 16.067.586 24.094 1.089 5.325.333 10.662.503 15.995.768 8.155.401 16.31.79 24.464 1.127 7.289.299 14.589.62 21.892.473 3.034-.061 6.003-.265 8.938-1.112 11.82-3.423 20.035-10.383 22.834-22.834.632-2.814 1.706-3.942 4.857-2.64 4.164 1.713 8.499 2.435 13.045 2.492 7.939.098 15.81-.76 23.704-1.259 3.064-.193 6.127-.492 9.184-.795a398.286 398.286 0 0118.004-1.403c1.815-.098 3.623-.068 5.45-.287 3.226-.39 6.343-.307 8.775 2.625 1.335 1.611 3.325 2.655 5.212 3.68 5.416 2.946 11.154 4.285 17.365 4.259 5.938-.027 11.464-1.203 16.672-3.991 3.703-1.982 6.914-4.542 9.502-7.882 2.076-2.682 3.199-2.95 6.014-1.082 7.598 5.053 16.048 6.634 24.887 5.556 9.687-1.18 17.566-5.836 23.099-14.04 1.192-1.766 2.792-2.394 4.796-2.454 2.636-.084 5.265.166 7.905-.341 11.431-2.194 19.812-8.238 24.374-19.127 1.494-3.567 2.557-4.301 6.403-3.938 5.447.515 10.912.53 16.374.712 2.33.079 3.113-.651 3.086-2.55-.022-1.777-.82-2.443-3.014-2.447-5.545-.011-11.094.015-16.639-.015-3.302-.019-4.516-1.123-4.939-4.38-.632-4.841-2.743-9.093-5.504-12.989-2.958-4.172-7.031-7.163-11.691-9.183-6.842-2.962-14.044-3.571-21.37-2.444-8.355 1.286-15.167 5.25-20.281 12.051-3.155 4.191-3.181 4.168-8.526 4.172-.631 0-1.263-.027-1.891.007-7.228.383-13.529 3.049-19.195 7.508-2.16 1.703-3.707 3.908-5.647 5.772-1.354 1.301-2.493 1.328-3.994.345-3.726-2.436-7.61-4.573-11.968-5.685-4.138-1.056-8.362-.73-12.565-.764-1.331-.012-2.678-.065-3.721-1.003a34.168 34.168 0 00-3.367-2.662c-6.328-4.411-13.234-6.926-21.018-6.949-2.64-.007-5.25.076-7.777.836-2.451.738-4.947 1.29-7.311 2.387-4.66 2.156-8.461 5.352-11.926 9.051-1.327 1.418-3.082 1.418-4.463.163-2.481-2.258-5.394-3.866-8.378-5.318-7.069-3.442-14.604-3.794-22.13-2.493-7.72 1.335-14.199 5.133-19.196 11.366-2.905 3.62-4.482 7.811-5.866 12.104-.515 1.592-1.309 2.216-2.954 2.25-1.577.03-2.943-.632-4.308-1.112-5.727-2.016-11.616-2.262-17.414-1.112-4.04.802-8.2 1.676-11.858 3.93-1.706 1.051-3.786.265-4.028-1.513-.371-2.701-1.581-4.951-2.973-7.202-2.337-3.782-5.768-6.535-8.904-9.558-2.5-2.409-5.802-3.241-8.998-4.395-6.082-2.197-12.376-1.891-18.39-1.032-4.088.582-8.529 1.725-12.005 5.053-2.897 2.772-6.078 5.212-8.442 8.529-1.388 1.948-3.075 2.848-5.806 2.425-3.639-.568-7.44-.541-11.116-.004-7.644 1.119-14.214 4.421-19.487 10.19-1.543 1.686-3.06 1.876-5.121.843-8.684-4.346-17.792-4.932-26.98-2.39-9.342 2.583-16.162 8.43-20.016 17.478-1.331 3.124-1.66 6.403-1.634 9.773.023 3.03-1.396 4.04-4.338 3.317-.734-.177-1.46-.382-2.186-.578-2.425-.655-4.925-1.608-7.372-1.233-4.974.76-9.94 1.516-14.748 3.351-6.248 2.383-12.542 4.709-18.98 6.593-4.323 1.263-8.657 2.507-12.901 4.054-3.03 1.105-6.195 1.876-9.342 2.618-4.997 1.172-9.861 2.806-14.925 3.774-5.33 1.018-10.228 3.155-13.549 7.822-.484.681-.945 1.445-.533 2.273.389.783 1.244.689 2.004.753 2.527.216 5.012-.386 7.527-.382 6.472.008 12.925-.427 19.385-.696 6.71-.28 13.423-.503 20.137-.764 5.647-.219 11.29-.439 16.934-.745 7.341-.397 14.694-.564 22.043-.817 4.274-.147 8.548-.246 12.818-.397 1.827-.064 2.565-.847 2.618-2.735.041-1.384.034-2.772.011-4.157-.019-1.248.08-2.522 1.324-3.101 1.256-.583 2.084.446 2.928 1.199 7.878 7.039 17.281 9.316 27.509 8.306 8.283-.821 15.435-4.338 21.105-10.56 1.358-1.491 2.833-1.657 4.588-.851 1.657.76 3.313 1.543 5.027 2.152 6.09 2.163 12.466 2.027 18.802 2.175z" fill="#94B9F2"/><path opacity=".52" d="M59.998 247.928c-6.335-.148-12.712-.012-18.806-2.183-1.713-.609-3.37-1.392-5.026-2.152-1.752-.806-3.23-.635-4.588.851-5.674 6.222-12.823 9.743-21.106 10.56-10.227 1.01-19.634-1.263-27.509-8.306-.844-.752-1.672-1.781-2.928-1.199-1.248.579-1.346 1.857-1.323 3.102a89.6 89.6 0 01-.012 4.157c-.056 1.887-.79 2.67-2.617 2.734-4.274.152-8.548.25-12.819.397-7.349.25-14.702.417-22.043.817-5.643.307-11.286.526-16.934.746-6.713.261-13.427.48-20.137.764-6.46.272-12.913.707-19.384.696-2.516-.004-4.997.597-7.527.382-.757-.065-1.615.034-2.005-.753-.408-.828.049-1.589.533-2.273 3.321-4.671 8.22-6.805 13.549-7.822 5.064-.968 9.928-2.606 14.925-3.775 3.147-.738 6.313-1.509 9.342-2.617 4.244-1.547 8.579-2.792 12.902-4.055 6.438-1.884 12.731-4.21 18.98-6.593 4.81-1.834 9.773-2.587 14.747-3.351 2.447-.374 4.947.579 7.372 1.233.726.197 1.456.397 2.186.579 2.939.722 4.361-.288 4.338-3.317-.026-3.37.3-6.65 1.634-9.774 3.858-9.043 10.674-14.895 20.017-17.478 9.187-2.542 18.299-1.952 26.98 2.39 2.06 1.029 3.577.844 5.12-.843 5.27-5.768 11.843-9.074 19.487-10.19 3.677-.537 7.474-.563 11.116.004 2.735.428 4.422-.476 5.806-2.424 2.364-3.318 5.545-5.757 8.442-8.53 3.477-3.328 7.917-4.47 12.006-5.053 6.014-.858 12.307-1.161 18.389 1.033 3.2 1.153 6.499 1.986 8.999 4.395 3.135 3.022 6.562 5.772 8.903 9.558 1.392 2.25 2.606 4.501 2.973 7.201.242 1.778 2.323 2.565 4.028 1.513 3.658-2.25 7.815-3.124 11.858-3.929 5.798-1.15 11.688-.908 17.414 1.112 1.365.48 2.735 1.142 4.308 1.112 1.645-.031 2.44-.659 2.954-2.251 1.384-4.293 2.962-8.484 5.867-12.103 4.996-6.234 11.475-10.031 19.195-11.366 7.523-1.302 15.061-.95 22.13 2.492 2.985 1.453 5.897 3.06 8.378 5.318 1.381 1.256 3.136 1.26 4.464-.163 3.46-3.699 7.262-6.895 11.925-9.051 2.364-1.093 4.861-1.649 7.312-2.386 2.526-.761 5.136-.844 7.776-.836 7.784.022 14.691 2.542 21.019 6.948a33.792 33.792 0 013.366 2.663c1.044.942 2.39.991 3.722 1.002 4.202.034 8.427-.291 12.565.764 4.357 1.112 8.241 3.249 11.967 5.685 1.505.983 2.64.957 3.994-.344 1.941-1.865 3.488-4.074 5.647-5.772 5.666-4.463 11.968-7.126 19.196-7.508.628-.034 1.259-.008 1.891-.008 5.344-.003 5.375.019 8.525-4.172 5.118-6.8 11.926-10.764 20.281-12.05 7.327-1.127 14.532-.518 21.37 2.443 4.66 2.02 8.73 5.008 11.692 9.184 2.761 3.896 4.875 8.147 5.503 12.988.424 3.257 1.638 4.361 4.94 4.38 5.545.034 11.093.004 16.638.015 2.194.004 2.992.67 3.015 2.448.023 1.898-.757 2.628-3.087 2.549-5.458-.182-10.927-.197-16.373-.711-3.847-.363-4.91.371-6.404 3.937-4.561 10.89-12.939 16.934-24.373 19.128-2.637.506-5.269.257-7.905.34-2.005.064-3.601.688-4.796 2.455-5.538 8.204-13.413 12.86-23.099 14.04-8.84 1.078-17.286-.503-24.888-5.556-2.81-1.869-3.938-1.604-6.014 1.081-2.583 3.34-5.798 5.901-9.501 7.883-5.209 2.787-10.735 3.964-16.673 3.99-6.211.027-11.952-1.312-17.365-4.259-1.883-1.025-3.877-2.069-5.212-3.68-2.432-2.935-5.548-3.015-8.775-2.625-1.827.219-3.635.193-5.45.287a393.44 393.44 0 00-18.004 1.404c-3.056.302-6.12.601-9.184.794-7.893.499-15.764 1.358-23.704 1.26-4.546-.057-8.881-.776-13.045-2.493-3.151-1.297-4.225-.17-4.856 2.64-2.799 12.455-11.015 19.415-22.834 22.834-2.932.847-5.901 1.052-8.938 1.112-7.308.148-14.604-.174-21.892-.473a3070.5 3070.5 0 01-24.465-1.127c-5.333-.261-10.67-.435-15.995-.768-8.023-.495-16.06-.703-24.09-1.081z" fill="#1064E4"/></g><path d="M68.425 262.078H-89.252s36.3-15.166 62.39-17.82c9.59-.975 39.325-3.033 49.912 1.896 2.186 1.016 4.648-.433 6.871-2.647 4.386-4.368 6.742-10.381 6.742-16.581v-13.103c0-.573.461-1.035 1.032-1.035h33.29c.67 0 1.21.553 1.195 1.224l-.337 16.589c6.308 1.474 19.644 5.027 25.32 9.865 7.562 6.446 9.075.759 9.075.759l1.039-16.699a1.603 1.603 0 011.596-1.501h19.22c.522 0 1.013.25 1.316.675l5.887 8.201c.272.379.711.603 1.176.603h6.504c.594 0 1.074-.482 1.074-1.077v-6.885s0-2.275 3.781-1.517c3.43.686 18.052-14.837 20.748-17.737a1.448 1.448 0 011.062-.463h39.223c.382 0 .752.159 1.013.44l12.006 12.744c.279.295.669.466 1.077.466h32.538c.306 0 .593-.125.805-.345l31.551-33.108a2.161 2.161 0 011.565-.671h135.954l.25 81.375-357.198-3.648z" fill="#5B90DD"/><path d="M259.355 254.172v-17.261s.767-3.836 4.601-3.836c3.833 0 4.983 3.069 4.983 3.069v3.069s4.984-1.918 4.984 1.918c0 3.835-4.601 4.219-4.601 4.219v8.822h-9.967zM6.337 256.553v-20.44s-.746-1.135 1.119-3.028c1.865-1.892 1.865-1.514 1.865-1.514v-23.846s.373-3.785 4.477-3.785c4.103 0 4.476 3.785 4.476 3.785v23.846s1.493 0 2.239 1.136c.746 1.135.746 3.406.746 3.406v21.575l-14.922-1.135zm64.649.131v-23.181c0-.49.113-.972.347-1.401.546-1.006 1.884-2.543 4.928-2.543 4.52 0 4.897 4.144 4.897 4.144l.377 22.981H70.986zm95.466-26.644c1.848.409 1.894 7.192 1.894 7.192h4.545l1.516-4.542v-19.685s1.515-4.543 5.303-4.543c3.788 0 5.303 3.785 5.303 3.785v48.456H173.27l-.379-15.9-6.113.36a.772.772 0 01-.569-.208c-.939-.894-4.303-4.202-4.303-5.83v-7.571s1.137-2.271 4.546-1.514z" fill="#27497C"/><path d="M350 254H-36v242h386V254z" fill="#27497C"/><g opacity=".4" filter="url(#filter0_f_132_1020)"><path d="M6.127 254.172l-7.397 18.452s-1.15.96-.58 3.677c.572 2.717.758 2.306.758 2.306l-11.612 25.803s-1.544 4.228 1.744 5.697c3.288 1.466 5.43-2.494 5.43-2.494l11.61-25.807s1.196.535 2.346-.429c1.15-.961 2.255-3.418 2.255-3.418l10.58-23.787H6.126z" fill="#283B4C"/></g><g opacity=".4" filter="url(#filter1_f_132_1020)"><path d="M70.827 254.172l-12.059 25.75a4.373 4.373 0 00-.408 1.741c-.015 1.368.412 3.674 3.2 4.925 4.14 1.857 6.622-2.709 6.622-2.709l13.996-29.707H70.827z" fill="#283B4C"/></g><g opacity=".4" filter="url(#filter2_f_132_1020)"><path d="M331.519 254.172l-5.384 12.133s-2.618.297-1.623 2.69c.999 2.396 2.618-.298 2.618-.298l-8.025 17.891s-1.275 2.844 1.831 4.227c3.11 1.383 4.223-2.023 4.223-2.023l7.68-18.041s-.219 2.34 2.418 1.078c2.645-1.266 6.478-17.657 6.478-17.657h-10.216z" fill="#283B4C"/></g><g opacity=".4" filter="url(#filter3_f_132_1020)"><path d="M259.254 254.172l-8.846 19.314s-1.283 4.635 2.16 6.195c3.447 1.556 6.058-1.436 6.058-1.436l1.577-3.459s3.493 4.187 5.464-.135c1.971-4.322-1.964-6.628-1.964-6.628l5.388-13.851h-9.837z" fill="#283B4C"/></g><path d="M203.3 35.107c0 14.51-7.107 20.672-17.358 23.281 8.528-4.385 14.209-11.006 14.209-19.233 0-13.044-16.193-30.586-41.156-30.586-14.147 0-24.609 4.732-31.018 11.636 5.802-9.036 17.398-15.684 34.166-15.684 24.964 0 41.157 17.542 41.157 30.586z" fill="#247DFF"/><path d="M201.501 37.356c0 15.4-19.917 25.188-41.157 25.188-21.239 0-38.457-10.237-38.457-25.638 0-15.401 13.494-30.136 38.457-30.136 24.964 0 41.157 17.542 41.157 30.586z" fill="#27497C"/><path d="M295.957 66.593c0 3.23-1.84 6.35-5.276 9.297-14.925 12.824-59.927 22.458-114.685 23.817h-.072a520.358 520.358 0 01-22.022.099 519.766 519.766 0 01-4.629-.09C94.555 98.357 49.557 88.75 34.566 75.948c-3.095-2.644-4.912-5.424-5.268-8.294a7.619 7.619 0 01-.071-1.061c0-18.384 59.71-33.285 133.365-33.285 68.517 0 124.971 12.895 132.51 29.493.562 1.246.855 2.51.855 3.792z" fill="#1064E5"/><path d="M295.957 66.593c0 .454-.036.904-.113 1.349-2.834-17.758-61.411-31.936-133.252-31.936-71.842 0-130.42 14.178-133.253 31.936a7.953 7.953 0 01-.112-1.35c0-18.383 59.71-33.284 133.365-33.284 73.654 0 133.365 14.901 133.365 33.285z" fill="#247DFF"/><path d="M295.845 67.942c-.036.225-.081.45-.139.675-4.188-17.443-62.185-31.26-133.114-31.26-70.928 0-128.925 13.817-133.113 31.26a7.185 7.185 0 01-.14-.675c2.835-17.757 61.412-31.935 133.253-31.935 71.842 0 130.419 14.178 133.253 31.935z" fill="#27497C"/><path d="M162.591 83.236c33.164 0 60.048-5.337 60.048-11.92s-26.884-11.92-60.048-11.92-60.048 5.337-60.048 11.92 26.884 11.92 60.048 11.92z" fill="#247DFF"/><path d="M162.591 79.637c18.88 0 34.185-3.222 34.185-7.197s-15.305-7.197-34.185-7.197c-18.88 0-34.185 3.222-34.185 7.197s15.305 7.197 34.185 7.197z" fill="#D8F1F0"/><path d="M135.828 37.806l4.048 18.442h46.329l3.149-18.442-25.863-.9-27.663.9zm40.096 61.901a520.24 520.24 0 01-22.022.1l1.309-12.973h19.706l1.007 12.873zm119.672-32.633c-1.147-2.05-2.487-3.958-3.895-5.95-2.645-1.773-5.407-3.374-8.137-4.836a2.412 2.412 0 01-.382-.252c-.207 1.484-1.381 3.455-5.668 4.714-6.585 1.939-45.879 2.249-45.879 2.249s10.795 3.149 12.144 9.446c1.35 6.297-8.996 8.996-8.996 8.996s24.307-.338 46.33-3.599c3.8-.562 6.985-1.26 9.567-1.947 2.874-2.46 4.624-5.047 5.123-7.714a6.584 6.584 0 00-.207-1.107zM90.246 81.436s-24.307-.338-46.329-3.599c-3.697-.548-6.81-1.219-9.351-1.889-3.095-2.644-4.912-5.424-5.267-8.294.036-.193.076-.387.13-.58 1.143-2.051 2.488-3.958 3.896-5.956 2.649-1.767 5.406-3.373 8.136-4.835.144-.076.27-.162.383-.252.207 1.485 1.385 3.455 5.672 4.714 6.585 1.939 45.879 2.25 45.879 2.25S82.6 66.142 81.251 72.44c-1.35 6.297 8.995 8.996 8.995 8.996z" fill="#27497C"/><path opacity=".7" d="M128.434 72.585L57.586 275.387h206.457L196.749 72.585h-68.315z" fill="#D8F1F0"/><path d="M161.039 283.034c57.012 0 103.229-3.524 103.229-7.872 0-4.347-46.217-7.871-103.229-7.871-57.011 0-103.228 3.524-103.228 7.871 0 4.348 46.217 7.872 103.228 7.872z" fill="#1064E5"/><path opacity=".47" d="M96.268 280.334c11.179 0 20.241-1.107 20.241-2.473 0-1.367-9.062-2.474-20.24-2.474-11.18 0-20.242 1.107-20.242 2.474 0 1.366 9.063 2.473 20.241 2.473z" fill="#27497C"/><path d="M98.234 273.687l3.445-11.906-27.626-8.002 3.135-10.827 34.193-24.631 14.947 4.327-9.315 32.179 7.512 2.177-4.085 10.21-6.468-1.871-3.445 11.906-12.293-3.562zm8.982-31.018c.949-3.279 2.681-9.005 3.612-11.812-3.283 2.829-10.224 8.29-20.888 16.13l14.784 4.282 2.492-8.6z" fill="#fff"/><path opacity=".47" d="M223.486 278.999c13.024-.701 23.522-2.376 23.448-3.74-.073-1.365-10.69-1.902-23.714-1.2-13.024.701-23.522 2.376-23.448 3.741.073 1.364 10.691 1.901 23.714 1.199zm-62.312.661c9.116 0 16.507-1.007 16.507-2.249 0-1.242-7.391-2.249-16.507-2.249-9.117 0-16.508 1.007-16.508 2.249 0 1.242 7.391 2.249 16.508 2.249z" fill="#27497C"/><path d="M187.577 221.286c0 18.522-7.543 32.759-26.633 32.759-18.032 0-26.7-14.201-26.7-32.206 0-17.529 8.596-32.151 26.889-32.151 17.668 0 26.444 14.443 26.444 31.598zm-38.071.391c0 9.905 2.222 20.709 11.596 20.709 9.495 0 11.276-10.089 11.276-21.019 0-9.379-1.813-20.097-11.173-20.097-9.144.004-11.699 9.401-11.699 20.407zm75.27 54.839l-3.121-12.316-28.58 7.247-2.839-11.2 17.475-39.506 15.46-3.918 8.438 33.285 7.772-1.97 1.678 11.146-6.693 1.696 3.122 12.315-12.712 3.221zm-8.132-32.084c-.859-3.392-2.294-9.351-2.928-12.32-1.435 4.201-4.746 12.626-10.112 25.094l15.293-3.877-2.253-8.897z" fill="#fff"/><defs><filter id="filter0_f_132_1020" x="-17.066" y="250.172" width="42.328" height="64.261" filterUnits="userSpaceOnUse" color-interpolation-filters="sRGB"><feFlood flood-opacity="0" result="BackgroundImageFix"/><feBlend in="SourceGraphic" in2="BackgroundImageFix" result="shape"/><feGaussianBlur stdDeviation="2" result="effect1_foregroundBlur_132_1020"/></filter><filter id="filter1_f_132_1020" x="54.359" y="250.172" width="31.818" height="40.86" filterUnits="userSpaceOnUse" color-interpolation-filters="sRGB"><feFlood flood-opacity="0" result="BackgroundImageFix"/><feBlend in="SourceGraphic" in2="BackgroundImageFix" result="shape"/><feGaussianBlur stdDeviation="2" result="effect1_foregroundBlur_132_1020"/></filter><filter id="filter2_f_132_1020" x="314.846" y="250.172" width="30.889" height="44.974" filterUnits="userSpaceOnUse" color-interpolation-filters="sRGB"><feFlood flood-opacity="0" result="BackgroundImageFix"/><feBlend in="SourceGraphic" in2="BackgroundImageFix" result="shape"/><feGaussianBlur stdDeviation="2" result="effect1_foregroundBlur_132_1020"/></filter><filter id="filter3_f_132_1020" x="246.174" y="250.172" width="26.918" height="33.958" filterUnits="userSpaceOnUse" color-interpolation-filters="sRGB"><feFlood flood-opacity="0" result="BackgroundImageFix"/><feBlend in="SourceGraphic" in2="BackgroundImageFix" result="shape"/><feGaussianBlur stdDeviation="2" result="effect1_foregroundBlur_132_1020"/></filter></defs></svg>