<svg width="1440" height="757" fill="none" xmlns="http://www.w3.org/2000/svg"><g opacity=".9"><path opacity=".49" d="M1086.05 359.87c45.29 0 82-36.713 82-82s-36.71-82-82-82-82 36.713-82 82 36.71 82 82 82z" fill="#D8F1F0"/><path d="M1086.05 351.87c40.87 0 74-33.131 74-74s-33.13-74-74-74-74 33.131-74 74 33.13 74 74 74zM1212.94 8.99c-5.21.71-6.05 1.55-6.77 6.77-.02.14-.23.14-.25 0-.71-5.21-1.55-6.05-6.77-6.77-.14-.02-.14-.23 0-.25 5.21-.71 6.05-1.55 6.77-6.77.02-.14.23-.14.25 0 .71 5.21 1.55 6.05 6.77 6.77.14.03.14.23 0 .25zm-1043 298c-5.21.71-6.05 1.55-6.77 6.77-.02.14-.23.14-.25 0-.71-5.21-1.55-6.05-6.77-6.77-.14-.02-.14-.23 0-.25 5.21-.71 6.05-1.55 6.77-6.77.02-.14.23-.14.25 0 .71 5.21 1.55 6.05 6.77 6.77.14.03.14.23 0 .25zM364.289 74.07c-8.51 1.16-9.88 2.53-11.04 11.04-.03.24-.37.24-.41 0-1.16-8.51-2.53-9.88-11.04-11.04-.24-.03-.24-.37 0-.41 8.51-1.16 9.88-2.53 11.04-11.04.03-.24.37-.24.41 0 1.16 8.51 2.53 9.88 11.04 11.04.24.04.24.38 0 .41zM70.88 50.9c-1.39.19-1.61.41-1.8 1.8-.01.04-.06.04-.07 0-.19-1.39-.41-1.61-1.8-1.8-.04-.01-.04-.06 0-.07 1.39-.19 1.61-.41 1.8-1.8.01-.04.06-.04.07 0 .19 1.39.41 1.61 1.8 1.8.04.01.04.07 0 .07zm422-49c-1.39.19-1.61.41-1.8 1.8-.01.04-.06.04-.07 0-.19-1.39-.41-1.61-1.8-1.8-.04-.01-.04-.06 0-.07 1.39-.19 1.61-.41 1.8-1.8.01-.04.06-.04.07 0 .19 1.39.41 1.61 1.8 1.8.04.01.04.07 0 .07z" fill="#D8F1F0"/><g opacity=".32"><path opacity=".52" d="M333.749 344.97c15.19-1.23 30.29 2.63 44.58 10.07 3.46 1.8 5.85.46 8.34-2.05 13.18-13.29 28.84-22.21 47.16-26.43 12.01-2.76 24.21-1.8 36.29-1.38 6.85.24 10.96-2.43 14.28-7.72 8.88-14.11 22.39-22.22 37.3-28.38 4.74-1.96 9.58-4.09 14.58-4.92 11.94-2 24.09-1.63 36.12-1.01 18.14.94 33.74 8.84 48 19.54 13.02 9.76 21.35 22.93 26.66 38.14 2.4 6.85 4.1 7.72 10.5 4.29 19.24-10.29 39.74-11.62 60.95-9.4 7.02.73 13.66 2.38 20.26 4.65 3.77 1.29 6.28.35 7.47-3.9 10.02-35.79 34.42-56.09 70.05-63.23 16.04-3.21 32.72-2.93 48.41 1.34 11.54 3.15 23.39 7.31 32.23 16.75 6.09 6.5 7.11 5.82 13.22-.66 9.42-9.99 20.61-17.57 33.48-22.7 11.56-4.61 23.46-5.89 35.82-6.21 15.12-.39 29.431 2 43.191 8.08 8.51 3.76 16.67 8.07 23.34 14.74 3.64 3.64 7.66 5.69 13.21 5.49 11.6-.42 23.25-.69 34.6 2.82 9.54 2.95 18.74 6.63 27.26 11.84 3.95 2.41 6.83 1.45 9.51-1.85 9.72-11.98 21.84-20.25 36.43-25.65 13.05-4.83 26.24-6.91 39.98-6.25 3.75.18 6.24-1.37 8.31-4.31 9.22-13.1 20.64-23.77 35.25-30.61 11.5-5.38 23.53-9 36.39-9.07 13.28-.07 26.49-.39 39.46 3.89 25.11 8.29 43.88 23.38 54.41 48.03 2.37 5.54 3.74 11.33 4.95 17.18 1.42 6.89 2.44 7.81 9.67 7.83 15 .04 29.99 0 44.99.03 7.43.01 10.47 3.11 10.52 10.59.01 1.67.02 3.33-.01 5-.11 5.71-3.58 9.18-9.28 9.32-17.14.44-34.23-1.54-51.39-1.13-4.53.11-6.96 1.46-8.44 5.84-4.61 13.7-12.35 25.64-23.8 34.35-15.64 11.9-32.96 20.47-53.27 20.9-3.5.07-7.03.34-10.49-.05-6.16-.69-9.94 2.42-13.33 6.99-15.71 21.16-36.34 33.96-62.81 37.08-20.27 2.39-39.63-.04-58.16-8.97-4.01-1.93-8.19-3.33-11.75-6.2-2.51-2.02-4.92-.78-7.04 1.32-5.06 5.04-9.77 10.47-15.62 14.66-7.54 5.41-15.76 9.44-24.27 13.18-17.06 7.49-35.04 5.83-52.46 4.47-17.59-1.37-33.34-9.73-46.48-21.9-3.411-3.16-6.761-4.63-11.461-4.75-16.47-.41-32.85 1.02-49.22 2.24-15.65 1.16-31.31 2.44-46.91 4.03-21.83 2.22-43.66 2.96-65.57 3.03-10.01.03-19.39-1.93-28.69-5.18-5.2-1.82-6.33-1.12-7.69 4.13-7.1 27.49-24.57 46.32-50.2 57.1-9.87 4.15-20.6 7.14-31.87 6.88-15.82-.37-31.68.42-47.48-.22-22.87-.93-45.73-2.13-68.61-3.02-13.24-.52-26.48-1.4-39.74-1.98-22.04-.98-44.06-2.22-66.1-3.12-8.79-.36-17.59-.56-26.38-.7-17.56-.28-34.67-2.48-50.72-10.21-3.83-1.84-7.12-1.08-10.29 2.15-14.85 15.12-32.92 24.68-53.93 26.69-23.77 2.27-47.28.58-68-13.57-3.27-2.23-6.36-4.76-9.38-7.33-1.06-.91-1.87-2.01-3.38-1.39-1.45.6-1.62 1.97-1.63 3.36-.01 3 0 6-.05 8.99-.13 7.99-3.34 11.36-11.23 11.22-13.48-.25-26.92.93-40.38 1.29-16.76.44-33.52 1.21-50.28 1.92-17.59.74-35.19 1.3-52.78 2.01-16.59.67-33.18 1.31-49.78 1.98-17.76.73-35.52 1.37-53.27 2.08-6.79.27-13.59.6-20.4.77-3.32.08-6.61-.23-8.27-3.42-1.65-3.16-.09-6.28 1.74-8.87 8.49-12.03 19.37-20.58 33.91-24.59 38-10.47 76.36-19.71 113.8-32.16 18.25-6.07 36.35-12.62 54.66-18.5 10.21-3.28 20.52-6.66 31.5-6.32 6.68.21 12.97 2.45 19.39 3.98 4.87 1.16 9.28-1.87 8.16-6.55-1.68-6.96 1.4-12.58 3.17-18.72 3.51-12.19 10.43-22.4 19.22-31.02 18.96-18.57 41.73-28.05 69.57-26.66zm141.22 137.72c21.23 1 42.48 1.55 63.7 2.88 14.08.88 28.19 1.33 42.29 2.03 21.56 1.06 43.12 2.09 64.68 2.98 19.27.79 38.57 1.64 57.88 1.25 8.02-.16 15.87-.7 23.63-2.94 31.25-9.05 52.97-27.45 60.37-60.37 1.67-7.44 4.51-10.42 12.84-6.98 11.01 4.53 22.47 6.44 34.49 6.59 20.99.26 41.8-2.01 62.67-3.33 8.1-.51 16.2-1.3 24.28-2.1 15.84-1.58 31.7-2.85 47.6-3.71 4.8-.26 9.58-.18 14.41-.76 8.53-1.03 16.771-.81 23.201 6.94 3.53 4.26 8.79 7.02 13.78 9.73 14.32 7.79 29.49 11.33 45.91 11.26 15.7-.07 30.31-3.18 44.08-10.55 9.79-5.24 18.28-12.01 25.12-20.84 5.49-7.09 8.46-7.8 15.9-2.86 20.09 13.36 42.43 17.54 65.8 14.69 25.61-3.12 46.44-15.43 61.07-37.12 3.15-4.67 7.38-6.33 12.68-6.49 6.97-.22 13.92.44 20.9-.9 30.22-5.8 52.38-21.78 64.44-50.57 3.95-9.43 6.76-11.37 16.93-10.41 14.4 1.36 28.85 1.4 43.29 1.88 6.16.21 8.23-1.72 8.16-6.74-.06-4.7-2.17-6.46-7.97-6.47-14.66-.03-29.33.04-43.99-.04-8.73-.05-11.94-2.97-13.06-11.58-1.67-12.8-7.25-24.04-14.55-34.34-7.82-11.03-18.59-18.94-30.91-24.28-18.09-7.83-37.13-9.44-56.5-6.46-22.09 3.4-40.1 13.88-53.62 31.86-8.34 11.08-8.41 11.02-22.54 11.03-1.67 0-3.34-.07-5 .02-19.11 1.01-35.77 8.06-50.75 19.85-5.71 4.5-9.8 10.33-14.93 15.26-3.58 3.44-6.59 3.51-10.56.91-9.85-6.44-20.12-12.09-31.64-15.03-10.94-2.79-22.11-1.93-33.22-2.02-3.52-.03-7.08-.17-9.84-2.65a90.208 90.208 0 00-8.9-7.04c-16.73-11.66-34.99-18.31-55.571-18.37-6.98-.02-13.88.2-20.56 2.21-6.48 1.95-13.08 3.41-19.33 6.31-12.32 5.7-22.37 14.15-31.53 23.93-3.51 3.75-8.15 3.75-11.8.43-6.56-5.97-14.26-10.22-22.15-14.06-18.69-9.1-38.61-10.03-58.51-6.59-20.41 3.53-37.54 13.57-50.75 30.05-7.68 9.57-11.85 20.65-15.51 32-1.36 4.21-3.46 5.86-7.81 5.95-4.17.08-7.78-1.67-11.39-2.94-15.14-5.33-30.71-5.98-46.04-2.94-10.68 2.12-21.68 4.43-31.35 10.39-4.51 2.78-10.01.7-10.65-4-.98-7.14-4.18-13.09-7.86-19.04-6.18-10-15.25-17.28-23.54-25.27-6.61-6.37-15.34-8.57-23.79-11.62-16.08-5.81-32.72-5-48.62-2.73-10.81 1.54-22.55 4.56-31.74 13.36-7.66 7.33-16.07 13.78-22.32 22.55-3.67 5.15-8.13 7.53-15.35 6.41-9.62-1.5-19.67-1.43-29.39-.01-20.21 2.96-37.58 11.69-51.52 26.94-4.08 4.46-8.09 4.96-13.54 2.23-22.96-11.49-47.04-13.04-71.33-6.32-24.7 6.83-42.73 22.29-52.92 46.21-3.52 8.26-4.39 16.93-4.32 25.84.06 8.01-3.69 10.68-11.47 8.77-1.94-.47-3.86-1.01-5.78-1.53-6.41-1.73-13.02-4.25-19.49-3.26-13.15 2.01-26.28 4.01-38.99 8.86-16.52 6.3-33.16 12.45-50.18 17.43-11.43 3.34-22.89 6.63-34.11 10.72-8.01 2.92-16.38 4.96-24.7 6.92-13.21 3.1-26.07 7.42-39.46 9.98-14.09 2.69-27.04 8.34-35.82 20.68-1.28 1.8-2.5 3.82-1.41 6.01 1.03 2.07 3.29 1.82 5.3 1.99 6.68.57 13.25-1.02 19.9-1.01 17.11.02 34.17-1.13 51.25-1.84 17.74-.74 35.49-1.33 53.24-2.02 14.93-.58 29.85-1.16 44.77-1.97 19.41-1.05 38.85-1.49 58.28-2.16 11.3-.39 22.6-.65 33.89-1.05 4.83-.17 6.78-2.24 6.92-7.23.11-3.66.09-7.33.03-10.99-.05-3.3.21-6.67 3.5-8.2 3.32-1.54 5.51 1.18 7.74 3.17 20.83 18.61 45.69 24.63 72.73 21.96 21.9-2.17 40.81-11.47 55.8-27.92 3.59-3.94 7.49-4.38 12.13-2.25 4.38 2.01 8.76 4.08 13.29 5.69 16.1 5.72 32.96 5.36 49.71 5.75z" fill="#94B9F2"/><path opacity=".52" d="M474.97 482.69c-16.75-.39-33.61-.03-49.72-5.77-4.53-1.61-8.91-3.68-13.29-5.69-4.63-2.13-8.54-1.68-12.13 2.25-15 16.45-33.9 25.76-55.8 27.92-27.04 2.67-51.91-3.34-72.73-21.96-2.23-1.99-4.42-4.71-7.74-3.17-3.3 1.53-3.56 4.91-3.5 8.2.06 3.66.08 7.33-.03 10.99-.15 4.99-2.09 7.06-6.92 7.23-11.3.4-22.6.66-33.89 1.05-19.43.66-38.87 1.1-58.28 2.16-14.92.81-29.84 1.39-44.77 1.97-17.75.69-35.5 1.27-53.24 2.02-17.08.72-34.14 1.87-51.25 1.84-6.65-.01-13.21 1.58-19.9 1.01-2-.17-4.27.09-5.3-1.99-1.08-2.19.13-4.2 1.41-6.01 8.78-12.35 21.73-17.99 35.82-20.68 13.39-2.56 26.25-6.89 39.46-9.98 8.32-1.95 16.69-3.99 24.7-6.92 11.22-4.09 22.68-7.38 34.11-10.72 17.02-4.98 33.66-11.13 50.18-17.43 12.72-4.85 25.84-6.84 38.99-8.86 6.47-.99 13.08 1.53 19.49 3.26 1.92.52 3.85 1.05 5.78 1.53 7.77 1.91 11.53-.76 11.47-8.77-.07-8.91.79-17.58 4.32-25.84 10.2-23.91 28.22-39.38 52.92-46.21 24.29-6.72 48.38-5.16 71.33 6.32 5.45 2.72 9.46 2.23 13.54-2.23 13.93-15.25 31.31-23.99 51.52-26.94 9.72-1.42 19.76-1.49 29.39.01 7.23 1.13 11.69-1.26 15.35-6.41 6.25-8.77 14.66-15.22 22.32-22.55 9.19-8.8 20.93-11.82 31.74-13.36 15.9-2.27 32.54-3.07 48.62 2.73 8.46 3.05 17.18 5.25 23.79 11.62 8.29 7.99 17.35 15.26 23.54 25.27 3.68 5.95 6.89 11.9 7.86 19.04.64 4.7 6.14 6.78 10.65 4 9.67-5.95 20.66-8.26 31.35-10.39 15.33-3.04 30.9-2.4 46.04 2.94 3.61 1.27 7.23 3.02 11.39 2.94 4.35-.08 6.45-1.74 7.81-5.95 3.66-11.35 7.83-22.43 15.51-32 13.21-16.48 30.34-26.52 50.75-30.05 19.89-3.44 39.82-2.51 58.51 6.59 7.89 3.84 15.59 8.09 22.15 14.06 3.65 3.32 8.29 3.33 11.8-.43 9.15-9.78 19.2-18.23 31.53-23.93 6.25-2.89 12.85-4.36 19.33-6.31 6.68-2.01 13.58-2.23 20.56-2.21 20.58.06 38.84 6.72 55.57 18.37 3.14 2.19 6.08 4.49 8.9 7.04 2.76 2.49 6.32 2.62 9.84 2.65 11.11.09 22.28-.77 33.22 2.02 11.52 2.94 21.79 8.59 31.64 15.03 3.98 2.6 6.98 2.53 10.56-.91 5.13-4.93 9.22-10.77 14.93-15.26 14.98-11.8 31.64-18.84 50.75-19.85 1.66-.09 3.33-.02 5-.02 14.13-.01 14.21.05 22.54-11.03 13.53-17.98 31.53-28.46 53.62-31.86 19.37-2.98 38.42-1.37 56.5 6.46 12.32 5.34 23.08 13.24 30.91 24.28 7.3 10.3 12.89 21.54 14.55 34.34 1.12 8.61 4.33 11.53 13.06 11.58 14.66.09 29.33.01 43.99.04 5.8.01 7.91 1.77 7.97 6.47.06 5.02-2 6.95-8.16 6.74-14.43-.48-28.89-.52-43.29-1.88-10.17-.96-12.98.98-16.93 10.41-12.06 28.79-34.21 44.77-64.44 50.57-6.97 1.34-13.93.68-20.9.9-5.3.17-9.52 1.82-12.68 6.49-14.64 21.69-35.46 34-61.07 37.12-23.37 2.85-45.7-1.33-65.8-14.69-7.43-4.94-10.41-4.24-15.9 2.86-6.83 8.83-15.33 15.6-25.12 20.84-13.77 7.37-28.38 10.48-44.08 10.55-16.42.07-31.6-3.47-45.91-11.26-4.98-2.71-10.25-5.47-13.78-9.73-6.43-7.76-14.67-7.97-23.2-6.94-4.83.58-9.61.51-14.41.76-15.89.85-31.75 2.13-47.6 3.71-8.08.8-16.18 1.59-24.28 2.1-20.87 1.32-41.68 3.59-62.67 3.33-12.02-.15-23.48-2.05-34.49-6.59-8.33-3.43-11.17-.45-12.84 6.98-7.4 32.93-29.12 51.33-60.37 60.37-7.75 2.24-15.6 2.78-23.63 2.94-19.32.39-38.61-.46-57.88-1.25-21.56-.89-43.13-1.92-64.68-2.98-14.1-.69-28.21-1.15-42.29-2.03-21.21-1.31-42.46-1.86-63.69-2.86z" fill="#1064E4"/></g><path d="M497.049 519.87h-417s96-40 165-47c25.36-2.57 104-8 132 5 5.78 2.68 12.29-1.14 18.17-6.98 11.6-11.52 17.83-27.38 17.83-43.73V392.6c0-1.51 1.22-2.73 2.73-2.73h88.04c1.77 0 3.2 1.46 3.16 3.23l-.89 43.75c16.68 3.89 51.95 13.26 66.96 26.02 20 17 24 2 24 2l2.75-44.04a4.233 4.233 0 014.22-3.96h50.83c1.38 0 2.68.66 3.48 1.78l15.57 21.63c.72 1 1.88 1.59 3.11 1.59h17.2c1.57 0 2.84-1.27 2.84-2.84v-18.16s0-6 10-4c9.07 1.81 47.74-39.13 54.87-46.78.73-.78 1.74-1.22 2.81-1.22h103.73c1.01 0 1.99.42 2.68 1.16l31.75 33.61c.74.78 1.77 1.23 2.85 1.23h86.05c.81 0 1.57-.33 2.13-.91l83.441-87.32a5.734 5.734 0 014.14-1.77h359.55l.66 214.62-944.661-9.62z" fill="#5B90DD"/><path d="M1002.05 511.87v-45s2-10 12-10 13 8 13 8v8s13-5 13 5-12 11-12 11v23h-26zm191 0v-28s-6-3-1-7 6 3 6 3v-44s0-7 9-7 8 8 8 8l-1 44s2-5 7 0-2 31-2 31h-26zm-1076.28-6l.27-25 6-9v-42s1-5 9-5 8 6 8 6l2 43 4 5v27h-29.27zm216.279 0v-54s-2-3 3-8 5-4 5-4v-63s1-10 12-10 12 10 12 10v63s4 0 6 3 2 9 2 9v57l-40-3zm171 0v-61.53c0-1.3.3-2.58.92-3.72 1.45-2.67 5-6.75 13.08-6.75 12 0 13 11 13 11l1 61h-28zm252-70c4.88 1.08 5 19 5 19h12l4-12v-52s4-12 14-12 14 10 14 10v128h-31l-1-42-16.14.95c-.55.03-1.1-.17-1.5-.55-2.48-2.36-11.36-11.1-11.36-15.4v-20s3-6 12-4z" fill="#27497C"/><path d="M1441.05 505.87H1.049v251H1441.05v-251z" fill="#27497C"/><g clip-path="url(#clip0_132_598)"><g opacity=".4" filter="url(#filter0_f_132_598)"><path d="M333.119 505.87l-19.55 48.97s-3.04 2.55-1.53 9.76 2 6.12 2 6.12l-30.69 68.48s-4.08 11.22 4.61 15.12c8.69 3.89 14.35-6.62 14.35-6.62l30.69-68.49s3.16 1.42 6.2-1.14c3.04-2.55 5.96-9.07 5.96-9.07l27.96-63.13h-40z" fill="#283B4C"/></g><g opacity=".4" filter="url(#filter1_f_132_598)"><path d="M116.12 505.87l-10.4 31.08 1.72 13.11-18.36 51.8s-1.24 6.5 6.3 9.17 10.16-4.73 10.16-4.73l20.69-52.37 5.96-4.83 13.93-43.23h-30z" fill="#283B4C"/></g><g opacity=".4" filter="url(#filter2_f_132_598)"><path d="M504.121 505.87l-31.87 68.34c-.67 1.48-1.06 3.06-1.08 4.62-.04 3.63 1.09 9.75 8.46 13.07 10.94 4.93 17.5-7.19 17.5-7.19l36.99-78.84h-30z" fill="#283B4C"/></g><g opacity=".4" filter="url(#filter3_f_132_598)"><path d="M1193.12 505.87l-14.23 32.2s-6.92.79-4.29 7.14c2.64 6.36 6.92-.79 6.92-.79l-21.21 47.48s-3.37 7.55 4.84 11.22c8.22 3.67 11.16-5.37 11.16-5.37l20.3-47.88s-.58 6.21 6.39 2.86c6.99-3.36 17.12-46.86 17.12-46.86h-27z" fill="#283B4C"/></g><g opacity=".4" filter="url(#filter4_f_132_598)"><path d="M1002.12 505.87l-23.381 51.26s-3.39 12.3 5.71 16.44c9.11 4.13 16.011-3.81 16.011-3.81l4.17-9.18s9.23 11.11 14.44-.36c5.21-11.47-5.19-17.59-5.19-17.59l14.24-36.76h-26z" fill="#283B4C"/></g></g><path d="M805.537 135.433c0 28.887-14.148 41.155-34.555 46.349 16.978-8.731 28.287-21.912 28.287-38.29 0-25.968-32.236-60.89-81.933-60.89-28.162 0-48.99 9.42-61.75 23.165 11.551-17.99 34.636-31.224 68.018-31.224 49.697 0 81.933 34.922 81.933 60.89z" fill="#247DFF"/><path d="M801.957 139.911c0 30.66-39.65 50.145-81.933 50.145-42.283 0-76.561-20.38-76.561-51.041 0-30.66 26.863-59.994 76.561-59.994 49.697 0 81.933 34.922 81.933 60.89z" fill="#27497C"/><path d="M990 198.115c0 6.429-3.663 12.643-10.504 18.508-29.711 25.53-119.3 44.71-228.312 47.414h-.143a1034.74 1034.74 0 01-43.841.197 986.614 986.614 0 01-9.214-.179c-108.931-2.704-198.512-21.831-228.357-47.315-6.161-5.265-9.778-10.799-10.486-16.512a15.225 15.225 0 01-.143-2.113c0-36.597 118.871-66.263 265.5-66.263 136.403 0 248.791 25.672 263.799 58.714 1.119 2.48 1.701 4.997 1.701 7.549z" fill="#1064E5"/><path d="M990 198.115c0 .904-.072 1.799-.224 2.686-5.641-35.352-122.255-63.577-265.276-63.577-143.021 0-259.635 28.225-265.276 63.577a15.868 15.868 0 01-.224-2.686c0-36.597 118.871-66.263 265.5-66.263 146.629 0 265.5 29.666 265.5 66.263z" fill="#247DFF"/><path d="M989.777 200.801c-.072.448-.161.896-.278 1.343-8.336-34.725-123.795-62.233-264.998-62.233-141.203 0-256.662 27.508-264.999 62.233a14.165 14.165 0 01-.277-1.343c5.641-35.352 122.255-63.576 265.276-63.576 143.02 0 259.635 28.224 265.276 63.576z" fill="#27497C"/><path d="M724.499 231.246c66.021 0 119.542-10.624 119.542-23.73 0-13.105-53.521-23.729-119.542-23.729s-119.542 10.624-119.542 23.729c0 13.106 53.521 23.73 119.542 23.73z" fill="#247DFF"/><path d="M724.499 224.082c37.585 0 68.054-6.414 68.054-14.327s-30.469-14.327-68.054-14.327-68.054 6.414-68.054 14.327 30.469 14.327 68.054 14.327z" fill="#D8F1F0"/><path d="M671.221 140.806l8.059 36.713h92.231l6.268-36.713-51.488-1.791-55.07 1.791zm79.819 123.231c-8.73.224-17.577.34-26.541.34-5.811 0-11.587-.045-17.3-.143l2.606-25.825h39.23l2.005 25.628zm238.244-64.964c-2.284-4.083-4.952-7.88-7.755-11.847-5.265-3.528-10.763-6.716-16.199-9.626a4.891 4.891 0 01-.761-.501c-.412 2.955-2.749 6.877-11.282 9.384-13.11 3.859-91.336 4.477-91.336 4.477s21.491 6.268 24.177 18.805c2.687 12.536-17.909 17.908-17.909 17.908s48.39-.671 92.231-7.163c7.567-1.119 13.907-2.507 19.046-3.877 5.722-4.898 9.206-10.047 10.2-15.357a12.954 12.954 0 00-.412-2.203zm-408.808 28.592s-48.39-.672-92.231-7.164c-7.361-1.092-13.557-2.427-18.617-3.761-6.16-5.265-9.778-10.799-10.485-16.512.071-.385.152-.77.259-1.155 2.275-4.083 4.952-7.88 7.755-11.856 5.274-3.519 10.763-6.715 16.198-9.626.287-.152.538-.322.762-.501.412 2.955 2.758 6.877 11.291 9.384 13.11 3.86 91.336 4.477 91.336 4.477s-21.491 6.268-24.177 18.805c-2.687 12.536 17.909 17.909 17.909 17.909z" fill="#27497C"/><path opacity=".7" d="M657.342 207.965l-141.885 340.27h411.01l-134.361-340.27H657.342z" fill="#D8F1F0"/><path d="M721.409 563.457c113.498 0 205.505-7.016 205.505-15.67 0-8.655-92.007-15.671-205.505-15.671-113.497 0-205.505 7.016-205.505 15.671 0 8.654 92.008 15.67 205.505 15.67z" fill="#1064E5"/><path opacity=".47" d="M592.465 558.084c22.254 0 40.295-2.205 40.295-4.925 0-2.72-18.041-4.925-40.295-4.925s-40.295 2.205-40.295 4.925c0 2.72 18.041 4.925 40.295 4.925z" fill="#27497C"/><path d="M596.378 544.849l6.859-23.702-54.999-15.93 6.242-21.553 68.071-49.035 29.756 8.614-18.545 64.06 14.954 4.334-8.13 20.327-12.877-3.725-6.859 23.702-24.472-7.092zm17.882-61.75c1.889-6.527 5.336-17.926 7.19-23.514-6.537 5.632-20.353 16.503-41.585 32.111l29.434 8.524 4.961-17.121z" fill="#fff"/><path opacity=".47" d="M845.727 555.425c25.927-1.397 46.827-4.731 46.68-7.447-.146-2.716-21.283-3.786-47.21-2.389-25.927 1.397-46.826 4.731-46.68 7.447.146 2.716 21.283 3.786 47.21 2.389zm-124.05 1.316c18.15 0 32.863-2.004 32.863-4.477 0-2.473-14.713-4.477-32.863-4.477-18.149 0-32.863 2.004-32.863 4.477 0 2.473 14.714 4.477 32.863 4.477z" fill="#27497C"/><path d="M774.241 440.53c0 36.875-15.016 65.215-53.019 65.215-35.898 0-53.154-28.269-53.154-64.113 0-34.896 17.112-64.007 53.53-64.007 35.173 0 52.643 28.753 52.643 62.905zm-75.79.779c0 19.718 4.423 41.227 23.084 41.227 18.903 0 22.449-20.085 22.449-41.845 0-18.67-3.608-40.008-22.243-40.008-18.204.009-23.29 18.715-23.29 40.626zm149.844 109.173l-6.215-24.518-56.897 14.426-5.65-22.297 34.788-78.647 30.777-7.799 16.798 66.263 15.474-3.922 3.34 22.189-13.325 3.376 6.215 24.517-25.305 6.412zm-16.19-63.873c-1.71-6.751-4.567-18.616-5.83-24.526-2.856 8.364-9.446 25.135-20.129 49.957l30.445-7.719-4.486-17.712z" fill="#fff"/></g><defs><filter id="filter0_f_132_598" x="278.393" y="501.87" width="98.727" height="157.314" filterUnits="userSpaceOnUse" color-interpolation-filters="sRGB"><feFlood flood-opacity="0" result="BackgroundImageFix"/><feBlend in="SourceGraphic" in2="BackgroundImageFix" result="shape"/><feGaussianBlur stdDeviation="2" result="effect1_foregroundBlur_132_598"/></filter><filter id="filter1_f_132_598" x="85.004" y="501.87" width="65.115" height="113.741" filterUnits="userSpaceOnUse" color-interpolation-filters="sRGB"><feFlood flood-opacity="0" result="BackgroundImageFix"/><feBlend in="SourceGraphic" in2="BackgroundImageFix" result="shape"/><feGaussianBlur stdDeviation="2" result="effect1_foregroundBlur_132_598"/></filter><filter id="filter2_f_132_598" x="467.17" y="501.87" width="70.951" height="95.21" filterUnits="userSpaceOnUse" color-interpolation-filters="sRGB"><feFlood flood-opacity="0" result="BackgroundImageFix"/><feBlend in="SourceGraphic" in2="BackgroundImageFix" result="shape"/><feGaussianBlur stdDeviation="2" result="effect1_foregroundBlur_132_598"/></filter><filter id="filter3_f_132_598" x="1155.62" y="501.87" width="68.494" height="106.126" filterUnits="userSpaceOnUse" color-interpolation-filters="sRGB"><feFlood flood-opacity="0" result="BackgroundImageFix"/><feBlend in="SourceGraphic" in2="BackgroundImageFix" result="shape"/><feGaussianBlur stdDeviation="2" result="effect1_foregroundBlur_132_598"/></filter><filter id="filter4_f_132_598" x="974.121" y="501.87" width="57.998" height="76.891" filterUnits="userSpaceOnUse" color-interpolation-filters="sRGB"><feFlood flood-opacity="0" result="BackgroundImageFix"/><feBlend in="SourceGraphic" in2="BackgroundImageFix" result="shape"/><feGaussianBlur stdDeviation="2" result="effect1_foregroundBlur_132_598"/></filter><clipPath id="clip0_132_598"><path fill="#fff" transform="translate(89 505.87)" d="M0 0h1131.12v149.31H0z"/></clipPath></defs></svg>