<svg width="40" height="40" fill="none" xmlns="http://www.w3.org/2000/svg"><rect width="40" height="40" rx="9.922" fill="#1064E5"/><path fill-rule="evenodd" clip-rule="evenodd" d="M31.067 31.479c-2.825 2.588-6.404 3.883-10.738 3.883-4.59 0-8.355-1.432-11.297-4.295-2.922-2.844-4.384-6.55-4.384-11.12 0-4.55 1.422-8.238 4.266-11.062 2.864-2.824 6.55-4.237 11.062-4.237 2.314 0 4.403.393 6.266 1.177l-.736 3.442c-1.569-.725-3.373-1.088-5.413-1.088-3.471 0-6.286 1.049-8.443 3.147-2.138 2.1-3.207 4.982-3.207 8.65 0 3.648 1.099 6.53 3.295 8.649 2.217 2.138 5.11 3.207 8.679 3.207 1.569 0 3-.226 4.295-.677a9.873 9.873 0 003.501-2c1.04-.883 1.844-2.07 2.412-3.56.3-.758.523-1.578.67-2.458.179-1.688.29-3.394-.004-4.718-.157-.71-.396-1.132-.646-1.372-.212-.204-.586-.43-1.38-.445-1.407-.028-2.976.865-4.576 2.54-1.551 1.623-2.857 3.686-3.658 5.24a20.196 20.196 0 00-.527 1.103l-.083-.084-6.38-6.418 2.7-2.7 2.987 2.921a23.64 23.64 0 012.2-2.7c1.836-1.922 4.379-3.78 7.412-3.72 1.59.031 2.938.534 3.953 1.511.978.941 1.474 2.155 1.727 3.3.2.902.27 1.871.27 2.822h.013v.5c0 1.143-.093 2.224-.28 3.244l-.004.045h-.003c-.544 2.934-1.86 5.358-3.95 7.273z" fill="#fff"/></svg>