<svg width="131" height="40" fill="none" xmlns="http://www.w3.org/2000/svg"><path d="M72.017 6.564c.765 0 1.392.235 1.883.706.49.45.735 1.04.735 1.765 0 .726-.245 1.324-.736 1.794-.49.471-1.117.707-1.882.707-.746 0-1.373-.236-1.883-.707-.49-.47-.736-1.068-.736-1.794 0-.706.246-1.295.736-1.765.51-.47 1.137-.706 1.883-.706zm-2.118 23.653v-16.18h4.207v16.18h-4.207zM88.48 14.036h4.206v15.975c0 2.392-.725 4.305-2.177 5.736-1.45 1.452-3.393 2.177-5.825 2.177-2.098 0-3.922-.53-5.471-1.588-1.53-1.06-2.442-2.599-2.736-4.62h4.354c.431 1.648 1.676 2.472 3.736 2.472 2.608 0 3.913-1.353 3.913-4.06v-2.324c-1.256 1.687-2.952 2.53-5.09 2.53-2.118 0-3.883-.784-5.295-2.353-1.393-1.57-2.09-3.56-2.09-5.972 0-2.413.707-4.403 2.119-5.972 1.412-1.57 3.168-2.354 5.266-2.354 2.157 0 3.854.863 5.09 2.589v-2.236zm-4.15 12.297c1.197 0 2.187-.402 2.972-1.206.784-.804 1.177-1.843 1.177-3.118 0-1.256-.403-2.285-1.207-3.09-.784-.823-1.765-1.235-2.942-1.235-1.176 0-2.157.412-2.942 1.236-.764.804-1.147 1.833-1.147 3.089 0 1.255.383 2.294 1.147 3.118.785.804 1.766 1.206 2.942 1.206zm-25.05-4.308c-1.51-.313-2.726-.627-3.648-.941a11.587 11.587 0 01-2.53-1.206c-.765-.471-1.304-1.06-1.618-1.765-.333-.706-.5-1.56-.5-2.56 0-1.137.245-2.148.735-3.03.471-.863 1.109-1.53 1.913-2a9.689 9.689 0 012.5-1.06 10.129 10.129 0 012.677-.353c2.805 0 4.943.657 6.414 1.971 1.451 1.334 2.304 3.001 2.56 5.002h-4.237c-.294-1.06-.794-1.834-1.5-2.324-.726-.49-1.795-.736-3.207-.736-1.177 0-2.07.206-2.677.618-.628.412-.942.99-.942 1.736 0 .47.177.843.53 1.117.333.295.745.51 1.236.648.49.137 1.363.343 2.618.617.098.02.176.03.235.03.04.02.108.04.206.059l.235.059c1.06.215 1.952.45 2.678.706.725.255 1.441.608 2.147 1.059a4.57 4.57 0 011.618 1.735c.353.706.53 1.55.53 2.53 0 2.04-.765 3.629-2.295 4.766-1.53 1.138-3.354 1.707-5.472 1.707-2.589 0-4.55-.599-5.884-1.795-1.353-1.177-2.157-2.706-2.412-4.59h4.266c.51 1.648 1.843 2.472 4 2.472 1.197 0 2.09-.226 2.678-.677.588-.431.882-1 .882-1.706 0-.569-.245-.98-.735-1.236-.51-.255-1.51-.539-3-.853z" fill="#fff"/><path fill-rule="evenodd" clip-rule="evenodd" d="M111.324 15.331c-1.039-1.137-2.471-1.706-4.295-1.706-2.076 0-3.716.804-4.923 2.412v-2.008h-.108v-.051h-4.207v.051h-3.156v3.736h3.156v12.393h4.207v-8.502c0-2.687 1.216-4.03 3.648-4.03 1.079 0 1.854.274 2.324.823.471.55.706 1.373.706 2.472v9.237h4.207v-10.15c0-1.98-.52-3.54-1.559-4.677zm18.892-1.295h-4.207v8.502c0 1.314-.313 2.314-.941 3.001-.608.686-1.491 1.03-2.648 1.03-1.059 0-1.824-.275-2.294-.824-.452-.55-.677-1.373-.677-2.471v-9.238h-4.207v10.15c0 1.96.51 3.52 1.53 4.677 1.039 1.138 2.451 1.707 4.236 1.707 2.099 0 3.766-.863 5.001-2.59v2.237h.001v.407c0 1.219-.282 2.101-.84 2.68-.557.578-1.404.881-2.575.881-.924 0-1.647-.185-2.183-.54-.533-.352-.897-.882-1.086-1.604l-.032-.125h-4.318l.027.19c.276 1.896 1.136 3.353 2.582 4.354h.001c1.453.994 3.161 1.488 5.117 1.488 2.268 0 4.096-.678 5.465-2.047 1.37-1.351 2.048-3.152 2.048-5.385v-16.48z" fill="#fff"/><rect width="40" height="40" rx="9.922" fill="#1064E5"/><path fill-rule="evenodd" clip-rule="evenodd" d="M31.067 31.479c-2.825 2.589-6.404 3.883-10.738 3.883-4.59 0-8.355-1.432-11.297-4.295-2.922-2.844-4.384-6.55-4.384-11.12 0-4.55 1.422-8.238 4.266-11.062 2.864-2.824 6.55-4.236 11.062-4.236 2.314 0 4.403.392 6.266 1.176l-.736 3.442c-1.569-.725-3.373-1.088-5.413-1.088-3.471 0-6.286 1.05-8.443 3.148-2.138 2.098-3.207 4.981-3.207 8.649 0 3.648 1.099 6.531 3.295 8.65 2.217 2.137 5.11 3.206 8.679 3.206 1.569 0 3-.226 4.295-.677a9.874 9.874 0 003.501-2c1.04-.883 1.844-2.07 2.412-3.56.3-.758.523-1.577.67-2.457.179-1.689.29-3.395-.004-4.718-.157-.712-.396-1.132-.646-1.373-.212-.204-.586-.43-1.38-.445-1.407-.027-2.976.865-4.576 2.54-1.551 1.623-2.857 3.686-3.658 5.24-.312.605-.527 1.103-.527 1.103l-.083-.084-6.38-6.418 2.7-2.7 2.987 2.921c.65-.92 1.386-1.849 2.2-2.7 1.836-1.922 4.379-3.779 7.412-3.72 1.59.031 2.938.535 3.953 1.512.978.94 1.474 2.154 1.727 3.299.2.902.27 1.871.27 2.822h.013v.5c0 1.143-.093 2.224-.28 3.244l-.004.045h-.003c-.544 2.934-1.86 5.358-3.95 7.273z" fill="#fff"/></svg>