<svg width="131" height="40" fill="none" xmlns="http://www.w3.org/2000/svg"><path d="M72.017 6.563c.765 0 1.392.236 1.883.707.49.45.735 1.039.735 1.765 0 .725-.245 1.323-.736 1.794-.49.47-1.117.706-1.882.706-.746 0-1.373-.235-1.883-.706-.49-.47-.736-1.069-.736-1.794 0-.706.246-1.295.736-1.765.51-.471 1.137-.707 1.883-.707zm-2.118 23.653v-16.18h4.207v16.18h-4.207zM88.48 14.037h4.206V30.01c0 2.393-.725 4.305-2.177 5.737-1.45 1.451-3.393 2.177-5.825 2.177-2.098 0-3.922-.53-5.471-1.589-1.53-1.059-2.442-2.599-2.736-4.619h4.354c.431 1.648 1.676 2.472 3.736 2.472 2.608 0 3.913-1.354 3.913-4.06v-2.324c-1.256 1.686-2.952 2.53-5.09 2.53-2.118 0-3.883-.785-5.295-2.354-1.393-1.569-2.09-3.56-2.09-5.972 0-2.412.707-4.403 2.119-5.972 1.412-1.569 3.168-2.353 5.266-2.353 2.157 0 3.854.863 5.09 2.589v-2.236zm-4.15 12.297c1.197 0 2.187-.402 2.972-1.206.784-.805 1.177-1.844 1.177-3.119 0-1.255-.403-2.285-1.207-3.089-.784-.824-1.765-1.235-2.942-1.235-1.176 0-2.157.411-2.942 1.235-.764.804-1.147 1.834-1.147 3.09 0 1.254.383 2.294 1.147 3.118.785.804 1.766 1.206 2.942 1.206zm-25.05-4.308c-1.51-.314-2.726-.628-3.648-.942a11.582 11.582 0 01-2.53-1.206c-.765-.47-1.304-1.059-1.618-1.765-.333-.706-.5-1.56-.5-2.56 0-1.137.245-2.147.735-3.03.471-.862 1.109-1.53 1.913-2a9.689 9.689 0 012.5-1.06 10.129 10.129 0 012.677-.352c2.805 0 4.943.657 6.414 1.97 1.451 1.335 2.304 3.002 2.56 5.002h-4.237c-.294-1.059-.794-1.834-1.5-2.324-.726-.49-1.795-.736-3.207-.736-1.177 0-2.07.207-2.677.618-.628.412-.942.99-.942 1.736 0 .47.177.843.53 1.118.333.294.745.51 1.236.647.49.137 1.363.343 2.618.618.098.02.176.03.235.03.04.019.108.039.206.058l.235.06c1.06.215 1.952.45 2.678.705.725.255 1.441.608 2.147 1.06a4.57 4.57 0 011.618 1.735c.353.706.53 1.55.53 2.53 0 2.04-.765 3.628-2.295 4.766-1.53 1.137-3.354 1.706-5.472 1.706-2.589 0-4.55-.598-5.884-1.794-1.353-1.177-2.157-2.707-2.412-4.59h4.266c.51 1.648 1.843 2.471 4 2.471 1.197 0 2.09-.225 2.678-.676.588-.432.882-1 .882-1.707 0-.568-.245-.98-.735-1.235-.51-.255-1.51-.54-3-.853z" fill="#061224"/><path fill-rule="evenodd" clip-rule="evenodd" d="M111.324 15.331c-1.039-1.137-2.471-1.706-4.295-1.706-2.076 0-3.716.804-4.923 2.412V14.03h-.108v-.051h-4.207v.051h-3.156v3.736h3.156v12.393h4.207v-8.502c0-2.687 1.216-4.03 3.648-4.03 1.079 0 1.854.275 2.324.824.471.549.706 1.373.706 2.47v9.238h4.207v-10.15c0-1.98-.52-3.54-1.559-4.677zm18.892-1.295h-4.207v8.502c0 1.314-.313 2.314-.941 3.001-.608.686-1.491 1.03-2.648 1.03-1.059 0-1.824-.275-2.294-.824-.452-.55-.677-1.373-.677-2.471v-9.238h-4.207v10.15c0 1.96.51 3.52 1.53 4.677 1.039 1.138 2.451 1.707 4.236 1.707 2.099 0 3.766-.863 5.001-2.59v2.237h.001v.407c0 1.219-.282 2.101-.84 2.68-.557.578-1.404.881-2.575.881-.924 0-1.647-.185-2.183-.54-.533-.352-.897-.882-1.086-1.604l-.032-.125h-4.318l.027.19c.276 1.896 1.136 3.353 2.582 4.354h.001c1.453.994 3.161 1.488 5.117 1.488 2.268 0 4.096-.678 5.465-2.047 1.37-1.351 2.048-3.152 2.048-5.385v-16.48z" fill="#061224"/><rect width="40" height="40" rx="9.922" fill="#061224"/><path fill-rule="evenodd" clip-rule="evenodd" d="M31.067 31.479c-2.825 2.588-6.404 3.883-10.738 3.883-4.59 0-8.355-1.432-11.297-4.295-2.922-2.844-4.384-6.55-4.384-11.12 0-4.55 1.422-8.238 4.266-11.062 2.864-2.824 6.55-4.237 11.062-4.237 2.314 0 4.403.393 6.266 1.177l-.736 3.442c-1.569-.725-3.373-1.088-5.413-1.088-3.471 0-6.286 1.049-8.443 3.147-2.138 2.1-3.207 4.982-3.207 8.65 0 3.648 1.099 6.53 3.295 8.649 2.217 2.138 5.11 3.207 8.679 3.207 1.569 0 3-.226 4.295-.677a9.873 9.873 0 003.501-2c1.04-.883 1.844-2.07 2.412-3.56.3-.758.523-1.578.67-2.458.179-1.688.29-3.394-.004-4.718-.157-.71-.396-1.132-.646-1.372-.212-.204-.586-.43-1.38-.445-1.407-.028-2.976.865-4.576 2.54-1.551 1.623-2.857 3.686-3.658 5.24a20.196 20.196 0 00-.527 1.103l-.083-.084-6.38-6.418 2.7-2.7 2.987 2.921a23.64 23.64 0 012.2-2.7c1.836-1.922 4.379-3.78 7.412-3.72 1.59.031 2.938.534 3.953 1.511.978.941 1.474 2.155 1.727 3.3.2.902.27 1.871.27 2.822h.013v.5c0 1.143-.093 2.224-.28 3.244l-.004.045h-.003c-.544 2.934-1.86 5.358-3.95 7.273z" fill="#fff"/></svg>