<svg width="60" height="60" fill="none" xmlns="http://www.w3.org/2000/svg"><g clip-path="url(#clip0_83_237)" fill="#1064E5" stroke="#1064E5"><path d="M49.512 31.712a.873.873 0 00-.873.874 1.11 1.11 0 01-2.217 0 .873.873 0 10-1.747 0 2.858 2.858 0 002.855 2.855 2.858 2.858 0 002.855-2.855.873.873 0 00-.873-.874z"/><path d="M57.708 31.855l-2.457-.787a1.028 1.028 0 01-.664-.672 15.848 15.848 0 00-2.323-4.596 16.793 16.793 0 00-1.552-1.83c.362-1.591.56-3.391.534-4.946-.037-2.225-.481-3.53-1.36-3.99-.472-.248-1.911-1.001-9.7 2.565a2.83 2.83 0 00-.516.307 33.873 33.873 0 00-1.602-.389l-.198-.04c.631-1.38 1-2.877 1.07-4.423a.873.873 0 10-1.745-.078 10.144 10.144 0 01-2.97 6.734 10.107 10.107 0 01-3.678 2.35 25.324 25.324 0 00-7.028 0 10.107 10.107 0 01-3.678-2.35 10.105 10.105 0 01-2.98-7.192c0-2.717 1.058-5.271 2.98-7.193a10.105 10.105 0 017.192-2.979c2.717 0 5.271 1.058 7.192 2.98.773.771 1.41 1.652 1.897 2.618a.873.873 0 101.56-.786A11.904 11.904 0 0035.46 4.09 11.84 11.84 0 0027.033.6a11.84 11.84 0 00-8.427 3.49 11.84 11.84 0 00-3.491 8.428 11.84 11.84 0 003.49 8.427 11.91 11.91 0 002.104 1.676s0 0 0 0c-.543.14-1.081.3-1.614.477a.873.873 0 00.553 1.657 23.434 23.434 0 0114.77 0 .872.872 0 001.105-.552.873.873 0 00-.551-1.105 24.547 24.547 0 00-1.615-.477s0 0 0 0a11.906 11.906 0 003.625-3.544 33.786 33.786 0 011.65.365c-.01.038-.02.075-.027.114-.426 2.02-.398 3.808.082 5.312.432 1.352 1.21 2.447 2.316 3.255 1.302.953 2.874 1.364 4.298 1.364 1.071 0 2.06-.233 2.785-.644.82-.465 1.508-1.445 2.053-2.915.251.293.49.594.714.902a14.098 14.098 0 012.068 4.09c.271.86.943 1.538 1.797 1.811l2.458.788c.645.206 1.078.8 1.078 1.477v4.075c0 .677-.433 1.27-1.078 1.477l-3.96 1.269a2.698 2.698 0 00-1.51 1.226c-1.555 2.688-4.001 4.913-7.27 6.612a1.367 1.367 0 00-.717.965l-1.269 6.715a.393.393 0 01-.385.32h-4.123a.393.393 0 01-.386-.32l-.702-3.711a1.372 1.372 0 00-1.56-1.104 36.501 36.501 0 01-5.44.405c-1.364 0-2.71-.076-4.002-.226a1.383 1.383 0 00-1.513 1.11l-.668 3.526a.393.393 0 01-.385.32h-4.124a.393.393 0 01-.386-.323l-1.22-6.342a1.37 1.37 0 00-.705-.954c-5.572-2.974-8.517-7.943-8.517-14.37 0-3.247.71-6.118 2.112-8.534 1.307-2.254 3.216-4.119 5.675-5.54a.873.873 0 00-.874-1.512c-4.768 2.757-7.643 7.012-8.434 12.415v0l-.252-.024a4.348 4.348 0 00-.32-1.742c-.507-1.26-1.547-2.168-2.651-2.315-.87-.117-1.698.253-2.273 1.012-.833 1.1-.697 1.972-.437 2.509.44.906 1.57 1.547 3.447 1.95a3.424 3.424 0 01-.17.233c-1.11 1.39-2.415 1.697-3.263 1.726a.917.917 0 00-.894.912v.005c0 .49.387.89.876.911.063.003.128.005.197.005 1.072 0 2.795-.396 4.449-2.47a4.98 4.98 0 00.638-1.03c.164.018.323.034.474.048 0 0 0 0 0 0-.03.473-.046.953-.046 1.441 0 3.636.867 6.878 2.576 9.637 1.577 2.543 3.833 4.625 6.71 6.19l1.187 6.167a2.14 2.14 0 002.101 1.74h4.124a2.14 2.14 0 002.101-1.74l.604-3.189c1.253.133 2.55.2 3.863.2 1.8 0 3.598-.125 5.35-.373l.636 3.362a2.14 2.14 0 002.101 1.74h4.124a2.14 2.14 0 002.101-1.74l1.235-6.539c3.488-1.844 6.118-4.268 7.817-7.204a.955.955 0 01.53-.437l3.96-1.268A3.288 3.288 0 0060 39.07v-4.075c0-1.44-.921-2.702-2.292-3.14zm-8.34-10.378c-.336 2.875-1.237 5.333-2.143 5.846-1.03.584-3.407.696-5.192-.61-1.786-1.307-2.381-3.657-1.72-6.797 0 0 0 0 0 0 .067-.316.29-.588.6-.73 4.371-2 6.892-2.655 7.828-2.655.141 0 .246.015.317.042.28.3.65 2.004.31 4.904zM2.453 31.172c-.09-.186.123-.514.258-.692.214-.284.412-.341.56-.341.032 0 .062.002.089.006.401.053.964.495 1.262 1.236.07.174.161.463.182.823-1.208-.25-2.148-.611-2.351-1.032z"/><path d="M27.881 11.517V8.392c1.078.077 1.478.57 1.847.57.462 0 .678-.585.678-.878 0-.754-1.478-1.077-2.525-1.108V6.56c0-.185-.23-.354-.462-.354-.262 0-.446.17-.446.354v.446c-1.463.154-2.925.924-2.925 2.864 0 1.97 1.54 2.524 2.925 3.017v3.617c-1.57-.123-1.986-1.2-2.494-1.2-.385 0-.708.508-.708.877 0 .754 1.293 1.786 3.202 1.816v.478c0 .184.185.354.446.354.231 0 .462-.17.462-.354v-.524c1.663-.23 2.802-1.277 2.802-3.17 0-2.094-1.463-2.772-2.802-3.264zm-.816-.293c-.816-.308-1.478-.63-1.478-1.508 0-.8.616-1.185 1.478-1.293v2.801zm.724 5.25v-3.248c.754.323 1.354.754 1.354 1.723 0 .878-.523 1.37-1.354 1.524z"/></g><defs><clipPath id="clip0_83_237"><path fill="#fff" d="M0 0h60v60H0z"/></clipPath></defs></svg>