<svg width="60" height="60" fill="none" xmlns="http://www.w3.org/2000/svg"><path d="M58.937 25.704a4.298 4.298 0 00-2.661-1.832 4.33 4.33 0 00-.223-4.4 4.313 4.313 0 00-2.66-1.83 4.39 4.39 0 00.41-1.152 4.299 4.299 0 00-.634-3.251 4.294 4.294 0 00-2.661-1.833 4.331 4.331 0 00-.223-4.4 4.333 4.333 0 00-5.997-1.219L39.981 8.64a26.918 26.918 0 00-7.273-2.462 19.999 19.999 0 00-2.776-3.357L28.15 1.094a3.922 3.922 0 00-4.867-.452 3.904 3.904 0 00-1.098 5.404c.047.071.093.142.138.214A27.149 27.149 0 00.84 36.59c1.305 9.494 7.63 17.676 16.505 21.354A26.968 26.968 0 0027.724 60a26.96 26.96 0 0015.76-5.042A27.067 27.067 0 0053.26 42.08a.933.933 0 10-1.755-.634A25.206 25.206 0 0142.4 53.44a25.101 25.101 0 01-14.676 4.694 25.15 25.15 0 01-7.98-1.286l7.591-5.026.002-.001v-.001l6.31-4.178h0a2.53 2.53 0 001.088-1.614 2.526 2.526 0 00-.372-1.912l-.083-.126 1.225-.812a4.156 4.156 0 012.962-.64 6.02 6.02 0 004.287-.927l10.164-6.73c-.07.88-.184 1.758-.344 2.62a.933.933 0 101.834.34c.26-1.391.408-2.816.446-4.243l2.864-1.897a4.298 4.298 0 001.852-2.746 4.298 4.298 0 00-.633-3.251zM38.17 9.839l-2.85 1.888-.561-1.512c-.235-.63-.504-1.25-.801-1.854 1.446.366 2.854.86 4.212 1.478zM8.627 16.307a25.276 25.276 0 0114.588-8.318 11.526 11.526 0 01.582 6.98l-2.275 9.827a2.522 2.522 0 00-1.344-.751 2.524 2.524 0 00-1.912.372l-6.443 4.266s0 0 0 0h-.001l-9.293 6.155a25.266 25.266 0 016.097-18.53zm24.28 29.349a.675.675 0 01-.291.43h0l-5.54 3.67-10.284-15.337a.933.933 0 00-1.55 1.04L25.52 50.785l-7.91 5.238C9.75 52.586 4.126 45.326 2.774 36.878l9.304-6.14 1.07 1.597a.933.933 0 001.55-1.04l-1.063-1.585 5.663-3.738a.677.677 0 01.94.192l12.57 18.983c.1.15.136.33.1.509zM57.74 28.583c-.13.645-.505 1.2-1.053 1.563l-3.274 2.168-.004.002-11.687 7.74a4.153 4.153 0 01-2.96.64 6.019 6.019 0 00-4.288.927l-1.225.811-10.296-15.547 2.661-11.497A13.404 13.404 0 0023.74 5.016a2.036 2.036 0 01.573-2.818 2.045 2.045 0 012.538.235l1.782 1.728a18.228 18.228 0 014.374 6.704l.97 2.614.006.014.007.018.02.043a.932.932 0 001.357.378l9.95-6.59a2.464 2.464 0 013.412.694 2.464 2.464 0 01-.693 3.411l-.864.573s0 0 0 0l-1.928 1.276-.007.005-.03.023a.932.932 0 001.068 1.528l1.928-1.277a2.446 2.446 0 011.848-.36c.644.132 1.2.505 1.562 1.054.363.548.491 1.205.36 1.849a2.445 2.445 0 01-1.053 1.562l-2.792 1.85a.932.932 0 101.03 1.555l.432-.287 1.495-.99a2.464 2.464 0 013.412.693 2.465 2.465 0 01-.693 3.412l-1.395.923-.022.015-1.375.91a.933.933 0 101.03 1.556l.432-.286s0 0 0 0l1.496-.99a2.443 2.443 0 011.849-.36c.644.13 1.2.505 1.562 1.053a2.45 2.45 0 01.36 1.85z" fill="#1064E5" stroke="#1064E5"/></svg>