<svg width="28" height="28" fill="none" xmlns="http://www.w3.org/2000/svg"><path fill-rule="evenodd" clip-rule="evenodd" d="M27.75 11.205H14.296c0 1.4 0 4.198-.009 5.597h7.797c-.3 1.4-1.358 3.358-2.855 4.345-.002-.002-.003.008-.006.007-1.99 1.314-4.616 1.612-6.565 1.22C9.6 21.767 7.183 19.55 6.2 16.735c.005-.004.01-.043.014-.046-.615-1.746-.615-4.084 0-5.484h-.002c.792-2.571 3.284-4.918 6.345-5.56 2.461-.522 5.239.043 7.281 1.955.272-.266 3.76-3.672 4.021-3.949C16.883-2.669 5.707-.446 1.526 7.716h-.001l-.007.015c-2.069 4.009-1.983 8.733.014 12.55l-.014.01a14.252 14.252 0 009.071 7.232c4.216 1.105 9.58.35 13.174-2.9.002 0 .003.002.005.004 3.044-2.743 4.94-7.415 3.982-13.422" fill="#1064E5"/></svg>