<svg width="242" height="166" fill="none" xmlns="http://www.w3.org/2000/svg"><mask id="path-1-inside-1_93_1888" fill="#fff"><path d="M237.674 109.019c.075-.038.148-.08.221-.122.062-.035.126-.067.186-.105.071-.044.138-.093.206-.14.06-.042.121-.081.179-.126.063-.049.122-.101.182-.152.059-.05.119-.098.175-.151.057-.053.108-.11.162-.165.055-.057.111-.111.164-.172.056-.063.105-.131.158-.197.044-.056.09-.11.133-.169.077-.108.149-.221.217-.335.012-.021.026-.039.038-.06.013-.022.023-.045.034-.067a4.3 4.3 0 00.18-.351c.032-.071.057-.142.085-.213.029-.074.061-.147.087-.222.027-.08.048-.162.071-.243.019-.068.041-.136.057-.206.02-.08.032-.162.046-.243.013-.072.028-.144.038-.217.011-.079.015-.157.022-.236.006-.076.015-.153.017-.23.003-.079-.001-.157-.002-.235-.002-.077 0-.154-.006-.231-.006-.092-.019-.182-.03-.272-.008-.064-.012-.128-.023-.192a4.322 4.322 0 00-.1-.465L213.777 4.998a4.77 4.77 0 00-5.843-3.374L62.766 40.522c-.04.01-.078.026-.119.038a4.761 4.761 0 00-1.094.479 5.055 5.055 0 00-.388.259 4.612 4.612 0 00-.831.785 4.353 4.353 0 00-.287.384 4.93 4.93 0 00-.252.42c-.02.04-.044.074-.063.113-.012.023-.02.047-.03.07a4.72 4.72 0 00-.11.252c-.026.062-.053.124-.076.187a4.98 4.98 0 00-.08.247c-.02.068-.042.136-.06.205-.02.079-.035.159-.05.239-.015.073-.031.146-.043.22-.011.077-.018.156-.026.234-.007.076-.016.152-.02.229-.004.076-.003.153-.003.23 0 .08-.002.158.002.237.003.073.012.147.018.22.008.084.016.167.027.25.01.068.025.137.038.206.017.087.034.175.056.262.006.025.01.05.017.076l7.615 28.42a4.77 4.77 0 109.217-2.47L71.35 54.13l50.694 25.298c-.174.208-.335.43-.476.672l-29.547 51.177-8.115-30.285a4.77 4.77 0 10-9.217 2.469l1.509 5.631-23.811 6.38a4.77 4.77 0 102.47 9.217l23.81-6.38 7.118 26.564a4.77 4.77 0 005.843 3.374l145.168-38.898a4.69 4.69 0 00.449-.144c.069-.026.133-.058.2-.086.077-.033.153-.063.228-.099zm-9.7-14.17l-51.179-29.547c-.032-.02-.066-.033-.099-.05l23.446-33.876a4.771 4.771 0 00-7.846-5.43L152.233 83.83l-74.84-37.347 128.402-34.405 22.179 82.772zm-98.14-9.978c.241-.417.41-.854.513-1.3l21.326 10.642a4.761 4.761 0 003.365.34 4.764 4.764 0 002.689-1.894L171.3 73.05c.222.191.462.366.724.517l51.178 29.548-122.915 32.935 29.547-51.178z"/></mask><path d="M237.674 109.019c.075-.038.148-.08.221-.122.062-.035.126-.067.186-.105.071-.044.138-.093.206-.14.06-.042.121-.081.179-.126.063-.049.122-.101.182-.152.059-.05.119-.098.175-.151.057-.053.108-.11.162-.165.055-.057.111-.111.164-.172.056-.063.105-.131.158-.197.044-.056.09-.11.133-.169.077-.108.149-.221.217-.335.012-.021.026-.039.038-.06.013-.022.023-.045.034-.067a4.3 4.3 0 00.18-.351c.032-.071.057-.142.085-.213.029-.074.061-.147.087-.222.027-.08.048-.162.071-.243.019-.068.041-.136.057-.206.02-.08.032-.162.046-.243.013-.072.028-.144.038-.217.011-.079.015-.157.022-.236.006-.076.015-.153.017-.23.003-.079-.001-.157-.002-.235-.002-.077 0-.154-.006-.231-.006-.092-.019-.182-.03-.272-.008-.064-.012-.128-.023-.192a4.322 4.322 0 00-.1-.465L213.777 4.998a4.77 4.77 0 00-5.843-3.374L62.766 40.522c-.04.01-.078.026-.119.038a4.761 4.761 0 00-1.094.479 5.055 5.055 0 00-.388.259 4.612 4.612 0 00-.831.785 4.353 4.353 0 00-.287.384 4.93 4.93 0 00-.252.42c-.02.04-.044.074-.063.113-.012.023-.02.047-.03.07a4.72 4.72 0 00-.11.252c-.026.062-.053.124-.076.187a4.98 4.98 0 00-.08.247c-.02.068-.042.136-.06.205-.02.079-.035.159-.05.239-.015.073-.031.146-.043.22-.011.077-.018.156-.026.234-.007.076-.016.152-.02.229-.004.076-.003.153-.003.23 0 .08-.002.158.002.237.003.073.012.147.018.22.008.084.016.167.027.25.01.068.025.137.038.206.017.087.034.175.056.262.006.025.01.05.017.076l7.615 28.42a4.77 4.77 0 109.217-2.47L71.35 54.13l50.694 25.298c-.174.208-.335.43-.476.672l-29.547 51.177-8.115-30.285a4.77 4.77 0 10-9.217 2.469l1.509 5.631-23.811 6.38a4.77 4.77 0 102.47 9.217l23.81-6.38 7.118 26.564a4.77 4.77 0 005.843 3.374l145.168-38.898a4.69 4.69 0 00.449-.144c.069-.026.133-.058.2-.086.077-.033.153-.063.228-.099zm-9.7-14.17l-51.179-29.547c-.032-.02-.066-.033-.099-.05l23.446-33.876a4.771 4.771 0 00-7.846-5.43L152.233 83.83l-74.84-37.347 128.402-34.405 22.179 82.772zm-98.14-9.978c.241-.417.41-.854.513-1.3l21.326 10.642a4.761 4.761 0 003.365.34 4.764 4.764 0 002.689-1.894L171.3 73.05c.222.191.462.366.724.517l51.178 29.548-122.915 32.935 29.547-51.178z" fill="#1064E5" stroke="#DEEEFC" stroke-width="3" mask="url(#path-1-inside-1_93_1888)"/><path d="M96.349 87l-77.833 20.856a4.02 4.02 0 11-2.081-7.768l77.832-20.855A4.02 4.02 0 1196.35 87zM54.724 70.934l-34.948 9.364a4.02 4.02 0 11-2.082-7.768l34.948-9.364a4.02 4.02 0 112.081 7.768zm-26.627 72.679l33.795-9.056a4.02 4.02 0 112.082 7.768l-33.796 9.056a4.02 4.02 0 11-2.081-7.768z" fill="#1064E5" stroke="#DEEEFC" stroke-width="1.5"/></svg>