<svg width="60" height="52" fill="none" xmlns="http://www.w3.org/2000/svg"><path d="M26.25 31.17A3.754 3.754 0 0030 34.918a3.754 3.754 0 003.75-3.75.937.937 0 10-1.874 0A1.878 1.878 0 0130 33.045a1.878 1.878 0 01-1.791-2.431.936.936 0 00.136-.323A1.874 1.874 0 0130 29.294a.937.937 0 000-1.874 3.745 3.745 0 00-2.992 1.493l-14.28-5.887a.937.937 0 10-.714 1.732l14.274 5.885a3.736 3.736 0 00-.037.526z" fill="#1064E5" stroke="#1064E5" stroke-width=".5"/><path d="M51.213 9.956C45.547 4.29 38.013 1.17 30 1.17c-8.013 0-15.547 3.121-21.213 8.787C3.12 15.622 0 23.156 0 31.17c0 5.868 1.7 11.557 4.918 16.453a.936.936 0 101.566-1.03c-.8-1.217-1.5-2.488-2.096-3.8l2.584-1.07a.937.937 0 10-.717-1.732L3.67 41.062a28.026 28.026 0 01-1.779-8.956h2.797a.937.937 0 000-1.874H1.891a28.067 28.067 0 011.768-8.96l2.596 1.076a.933.933 0 001.225-.507.937.937 0 00-.508-1.224L4.376 19.54a28.065 28.065 0 015.085-7.585l1.977 1.977a.934.934 0 001.326 0 .937.937 0 000-1.325l-1.977-1.977a28.07 28.07 0 017.585-5.086l1.076 2.597a.937.937 0 101.731-.718l-1.075-2.596a28.067 28.067 0 018.96-1.768v2.796a.937.937 0 001.873 0V3.061c3.105.1 6.122.703 8.96 1.767L38.82 7.425a.937.937 0 101.732.717l1.075-2.597a28.06 28.06 0 017.586 5.086l-1.977 1.977a.937.937 0 101.325 1.325l1.977-1.977a28.069 28.069 0 015.085 7.585l-2.596 1.076a.937.937 0 10.717 1.731l2.597-1.075a28.066 28.066 0 011.767 8.96h-2.796a.937.937 0 100 1.873h2.797a28.025 28.025 0 01-1.779 8.956l-2.586-1.071a.937.937 0 00-.717 1.731l2.585 1.07a28.125 28.125 0 01-2.097 3.8.937.937 0 101.567 1.03A29.873 29.873 0 0060 31.17c0-8.014-3.12-15.548-8.787-21.214z" fill="#1064E5" stroke="#1064E5" stroke-width=".5"/><path d="M38.417 41.46H21.551a2.814 2.814 0 00-2.81 2.812v3.748a2.814 2.814 0 002.81 2.811h16.866a2.814 2.814 0 002.811-2.811v-3.748a2.814 2.814 0 00-2.81-2.811zm.937 6.56c0 .517-.42.937-.937.937H21.551a.938.938 0 01-.937-.937v-3.748c0-.517.42-.937.937-.937h16.866c.517 0 .937.42.937.937v3.748z" fill="#1064E5" stroke="#1064E5" stroke-width=".5"/><path d="M30.921 45.209h-1.874a.937.937 0 100 1.874h1.874a.937.937 0 000-1.874zm-4.685 0h-1.874a.937.937 0 000 1.874h1.874a.937.937 0 100-1.874zm9.37 0h-1.874a.937.937 0 000 1.874h1.874a.937.937 0 000-1.874z" fill="#1064E5" stroke="#1064E5" stroke-width=".5"/></svg>