<svg width="28" height="25" fill="none" xmlns="http://www.w3.org/2000/svg"><path fill-rule="evenodd" clip-rule="evenodd" d="M8.806 24.889c10.566 0 16.345-9.577 16.345-17.88 0-.273 0-.544-.017-.814A12.337 12.337 0 0028 2.942a10.67 10.67 0 01-3.298.99c1.198-.786 2.095-2.02 2.525-3.477a10.934 10.934 0 01-3.648 1.526c-2.176-2.53-5.814-2.653-8.129-.273-1.49 1.535-2.125 3.823-1.661 6.005-4.619-.254-8.923-2.64-11.84-6.566-1.525 2.872-.745 6.545 1.78 8.388A5.333 5.333 0 011.12 8.75v.08c.001 2.99 1.93 5.566 4.609 6.16a5.24 5.24 0 01-2.593.106c.752 2.561 2.91 4.315 5.366 4.365-2.034 1.75-4.547 2.699-7.134 2.696A11 11 0 010 22.067c2.628 1.843 5.684 2.822 8.806 2.817" fill="#1064E5"/></svg>