<svg width="320" height="496" viewBox="0 0 320 496" fill="none" xmlns="http://www.w3.org/2000/svg">
<path opacity="0.49" d="M291.254 201.429C308.315 201.429 322.146 187.598 322.146 170.537C322.146 153.476 308.315 139.645 291.254 139.645C274.192 139.645 260.361 153.476 260.361 170.537C260.361 187.598 274.192 201.429 291.254 201.429Z" fill="#D8F1F0"/>
<path d="M291.254 198.415C306.65 198.415 319.132 185.934 319.132 170.537C319.132 155.14 306.65 142.658 291.254 142.658C275.857 142.658 263.375 155.14 263.375 170.537C263.375 185.934 275.857 198.415 291.254 198.415Z" fill="#D8F1F0"/>
<path d="M46.2433 0.954402C45.5451 1.04984 45.4346 1.16035 45.3392 1.85857C45.3342 1.87866 45.309 1.87866 45.304 1.85857C45.2086 1.16035 45.0981 1.04984 44.3998 0.954402C44.3797 0.949379 44.3797 0.924262 44.3998 0.919239C45.0981 0.823799 45.2086 0.71329 45.304 0.0150695C45.309 -0.00502317 45.3342 -0.00502317 45.3392 0.0150695C45.4346 0.71329 45.5451 0.823799 46.2433 0.919239C46.2634 0.924262 46.2634 0.954402 46.2433 0.954402Z" fill="#D8F1F0"/>
<g opacity="0.32">
<g opacity="0.32">
<path opacity="0.52" d="M6.58261 195.837C12.328 195.372 18.0393 196.832 23.4443 199.646C24.753 200.327 25.657 199.82 26.5988 198.871C31.5839 193.844 37.5071 190.47 44.4363 188.874C48.9789 187.83 53.5934 188.193 58.1625 188.352C60.7534 188.443 62.3079 187.433 63.5637 185.432C66.9224 180.095 72.0324 177.028 77.6718 174.698C79.4647 173.956 81.2953 173.151 83.1865 172.837C87.7026 172.08 92.2982 172.22 96.8483 172.455C103.71 172.81 109.61 175.798 115.004 179.845C119.928 183.537 123.079 188.518 125.087 194.271C125.995 196.862 126.638 197.191 129.059 195.894C136.336 192.002 144.09 191.499 152.112 192.338C154.767 192.615 157.279 193.239 159.775 194.097C161.201 194.585 162.151 194.23 162.601 192.622C166.391 179.085 175.62 171.407 189.096 168.706C195.163 167.492 201.472 167.598 207.406 169.213C211.771 170.405 216.253 171.978 219.597 175.549C221.9 178.007 222.286 177.75 224.597 175.299C228.16 171.52 232.393 168.653 237.26 166.713C241.633 164.969 246.134 164.485 250.809 164.364C256.528 164.217 261.94 165.121 267.145 167.42C270.364 168.843 273.45 170.473 275.973 172.996C277.349 174.372 278.87 175.148 280.969 175.072C285.357 174.913 289.763 174.811 294.056 176.139C297.665 177.254 301.144 178.646 304.367 180.617C305.861 181.528 306.95 181.165 307.964 179.917C311.64 175.386 316.224 172.258 321.743 170.215C326.679 168.389 331.668 167.602 336.865 167.852C338.283 167.92 339.225 167.333 340.008 166.221C343.495 161.266 347.815 157.231 353.341 154.644C357.69 152.609 362.241 151.239 367.105 151.213C372.128 151.187 377.124 151.065 382.03 152.684C391.527 155.82 398.627 161.527 402.609 170.851C403.506 172.946 404.024 175.136 404.482 177.349C405.019 179.955 405.405 180.303 408.139 180.311C413.813 180.326 419.483 180.311 425.156 180.322C427.966 180.326 429.116 181.498 429.135 184.327C429.139 184.959 429.143 185.587 429.131 186.219C429.09 188.378 427.777 189.691 425.621 189.744C419.138 189.91 412.674 189.161 406.184 189.316C404.47 189.358 403.551 189.869 402.992 191.525C401.248 196.707 398.32 201.223 393.99 204.518C388.074 209.019 381.523 212.26 373.841 212.423C372.517 212.449 371.182 212.551 369.873 212.404C367.543 212.143 366.114 213.319 364.831 215.048C358.889 223.051 351.086 227.893 341.074 229.073C333.408 229.977 326.085 229.057 319.076 225.68C317.56 224.95 315.979 224.42 314.632 223.335C313.683 222.571 312.771 223.04 311.969 223.834C310.055 225.74 308.274 227.794 306.061 229.379C303.209 231.425 300.1 232.95 296.882 234.364C290.429 237.197 283.628 236.569 277.039 236.055C270.386 235.537 264.429 232.375 259.459 227.771C258.169 226.576 256.902 226.02 255.124 225.975C248.895 225.82 242.699 226.361 236.508 226.822C230.588 227.261 224.665 227.745 218.765 228.346C210.508 229.186 202.251 229.466 193.964 229.492C190.178 229.504 186.63 228.762 183.112 227.533C181.146 226.845 180.718 227.11 180.204 229.095C177.518 239.493 170.91 246.615 161.216 250.692C157.483 252.262 153.425 253.393 149.162 253.295C143.178 253.155 137.18 253.454 131.203 253.212C122.553 252.86 113.907 252.406 105.253 252.069C100.245 251.873 95.2371 251.54 90.2217 251.32C81.8854 250.95 73.5566 250.481 65.2203 250.14C61.8957 250.004 58.5672 249.928 55.2425 249.876C48.6007 249.77 42.1291 248.938 36.0584 246.014C34.6098 245.318 33.3654 245.605 32.1664 246.827C26.5496 252.546 19.7149 256.162 11.7682 256.922C2.77757 257.781 -6.11473 257.141 -13.9518 251.789C-15.1886 250.946 -16.3573 249.989 -17.4996 249.017C-17.9005 248.673 -18.2069 248.257 -18.778 248.491C-19.3265 248.718 -19.3908 249.236 -19.3945 249.762C-19.3983 250.897 -19.3946 252.031 -19.4135 253.162C-19.4626 256.184 -20.6768 257.459 -23.661 257.406C-28.7596 257.312 -33.8431 257.758 -38.9342 257.894C-45.2734 258.061 -51.6126 258.352 -57.9518 258.62C-64.6049 258.9 -71.2619 259.112 -77.915 259.381C-84.1899 259.634 -90.4649 259.876 -96.7435 260.129C-103.461 260.406 -110.178 260.648 -116.892 260.916C-119.46 261.018 -122.032 261.143 -124.608 261.207C-125.864 261.238 -127.108 261.12 -127.736 259.914C-128.36 258.719 -127.77 257.539 -127.078 256.559C-123.867 252.009 -119.752 248.775 -114.252 247.258C-99.8791 243.298 -85.37 239.803 -71.2089 235.094C-64.3061 232.798 -57.4601 230.321 -50.5346 228.097C-46.6728 226.856 -42.7732 225.578 -38.6202 225.706C-36.0936 225.786 -33.7145 226.633 -31.2862 227.212C-29.4442 227.65 -27.7762 226.504 -28.1998 224.734C-28.8353 222.102 -27.6703 219.976 -27.0008 217.654C-25.6732 213.043 -23.0559 209.181 -19.7312 205.921C-12.5599 198.897 -3.94744 195.311 6.58261 195.837ZM59.9969 247.928C68.0268 248.306 76.0643 248.514 84.0905 249.017C89.416 249.35 94.7529 249.52 100.086 249.785C108.241 250.186 116.396 250.575 124.55 250.912C131.839 251.211 139.139 251.532 146.442 251.385C149.476 251.324 152.445 251.12 155.38 250.273C167.2 246.85 175.415 239.89 178.214 227.439C178.846 224.625 179.92 223.497 183.071 224.799C187.235 226.512 191.57 227.234 196.116 227.291C204.055 227.389 211.926 226.531 219.82 226.032C222.884 225.839 225.947 225.54 229.004 225.237C234.995 224.64 240.994 224.159 247.008 223.834C248.823 223.736 250.631 223.766 252.458 223.547C255.684 223.157 258.801 223.24 261.233 226.172C262.568 227.783 264.558 228.827 266.445 229.852C271.861 232.798 277.599 234.137 283.81 234.111C289.748 234.084 295.274 232.908 300.482 230.12C304.185 228.138 307.396 225.578 309.984 222.238C312.06 219.556 313.183 219.288 315.998 221.156C323.596 226.209 332.046 227.79 340.885 226.712C350.572 225.532 358.451 220.876 363.984 212.672C365.176 210.906 366.776 210.278 368.78 210.218C371.416 210.134 374.045 210.384 376.685 209.877C388.116 207.683 396.497 201.639 401.059 190.75C402.553 187.183 403.616 186.449 407.462 186.812C412.909 187.327 418.374 187.342 423.836 187.524C426.166 187.603 426.949 186.873 426.922 184.974C426.9 183.197 426.102 182.531 423.908 182.527C418.363 182.516 412.814 182.542 407.269 182.512C403.967 182.493 402.753 181.389 402.33 178.132C401.698 173.291 399.587 169.039 396.826 165.143C393.868 160.971 389.795 157.98 385.135 155.96C378.293 152.998 371.091 152.389 363.765 153.516C355.41 154.802 348.598 158.766 343.484 165.567C340.329 169.758 340.303 169.735 334.958 169.739C334.327 169.739 333.695 169.712 333.067 169.746C325.839 170.129 319.538 172.795 313.872 177.254C311.712 178.957 310.165 181.162 308.225 183.026C306.871 184.327 305.732 184.354 304.231 183.371C300.505 180.935 296.621 178.798 292.263 177.686C288.125 176.63 283.901 176.956 279.698 176.922C278.367 176.91 277.02 176.857 275.977 175.919C274.906 174.955 273.794 174.081 272.61 173.257C266.282 168.846 259.376 166.331 251.592 166.308C248.952 166.301 246.342 166.384 243.815 167.144C241.364 167.882 238.868 168.434 236.504 169.531C231.844 171.687 228.043 174.883 224.578 178.582C223.251 180 221.496 180 220.115 178.745C217.634 176.487 214.721 174.879 211.737 173.427C204.668 169.985 197.133 169.633 189.607 170.934C181.887 172.269 175.408 176.067 170.411 182.3C167.506 185.92 165.929 190.111 164.545 194.404C164.03 195.996 163.236 196.62 161.591 196.654C160.014 196.684 158.648 196.022 157.283 195.542C151.556 193.526 145.667 193.28 139.869 194.43C135.829 195.232 131.669 196.106 128.011 198.36C126.305 199.411 124.225 198.625 123.983 196.847C123.612 194.146 122.402 191.896 121.01 189.645C118.673 185.863 115.242 183.11 112.106 180.087C109.606 177.678 106.304 176.846 103.108 175.692C97.0261 173.495 90.7323 173.801 84.7184 174.66C80.6296 175.242 76.1892 176.385 72.7132 179.713C69.8159 182.485 66.6349 184.925 64.271 188.242C62.8828 190.19 61.1959 191.09 58.4651 190.667C54.8265 190.099 51.0252 190.126 47.3488 190.663C39.7046 191.782 33.1347 195.084 27.8621 200.853C26.3189 202.539 24.8022 202.729 22.7408 201.696C14.0565 197.35 4.94864 196.764 -4.23868 199.306C-13.5811 201.889 -20.4007 207.736 -24.2549 216.784C-25.5863 219.908 -25.9153 223.187 -25.8888 226.557C-25.8661 229.587 -27.2845 230.597 -30.2272 229.874C-30.961 229.697 -31.6872 229.492 -32.4134 229.296C-34.8379 228.641 -37.338 227.688 -39.7852 228.063C-44.759 228.823 -49.7252 229.579 -54.5326 231.414C-60.781 233.797 -67.0748 236.123 -73.5124 238.007C-77.8356 239.27 -82.1702 240.514 -86.414 242.061C-89.4436 243.166 -92.6094 243.937 -95.7564 244.679C-100.753 245.851 -105.617 247.485 -110.681 248.453C-116.011 249.471 -120.909 251.608 -124.23 256.275C-124.714 256.956 -125.175 257.72 -124.763 258.548C-124.374 259.331 -123.519 259.237 -122.759 259.301C-120.232 259.517 -117.747 258.915 -115.232 258.919C-108.76 258.927 -102.307 258.492 -95.8471 258.223C-89.1372 257.943 -82.4236 257.72 -75.7099 257.459C-70.0629 257.24 -64.4196 257.02 -58.7763 256.714C-51.4348 256.317 -44.0819 256.15 -36.7328 255.897C-32.4588 255.75 -28.1847 255.651 -23.9145 255.5C-22.0876 255.436 -21.35 254.653 -21.2971 252.765C-21.2555 251.381 -21.263 249.993 -21.2857 248.608C-21.3046 247.36 -21.2063 246.086 -19.9619 245.507C-18.7062 244.924 -17.8778 245.953 -17.0344 246.706C-9.15573 253.745 0.247177 256.022 10.4747 255.012C18.758 254.191 25.9104 250.674 31.5801 244.452C32.938 242.961 34.4131 242.795 36.1681 243.601C37.8248 244.361 39.4815 245.144 41.1949 245.753C47.2845 247.916 53.6615 247.78 59.9969 247.928Z" fill="#94B9F2"/>
<path opacity="0.52" d="M59.998 247.928C53.6626 247.78 47.2856 247.916 41.1922 245.745C39.4788 245.136 37.8221 244.353 36.1655 243.593C34.4142 242.787 32.9353 242.958 31.5775 244.444C25.904 250.666 18.7553 254.187 10.472 255.004C0.244522 256.014 -9.16219 253.741 -17.037 246.698C-17.8805 245.946 -18.7088 244.917 -19.9646 245.499C-21.2127 246.078 -21.3111 247.356 -21.2884 248.601C-21.2657 249.985 -21.2581 251.373 -21.2997 252.758C-21.3565 254.645 -22.0902 255.428 -23.9171 255.492C-28.1912 255.644 -32.4652 255.742 -36.7355 255.889C-44.0846 256.139 -51.4375 256.306 -58.779 256.706C-64.4223 257.013 -70.0655 257.232 -75.7126 257.452C-82.4263 257.713 -89.1399 257.932 -95.8498 258.216C-102.31 258.488 -108.763 258.923 -115.234 258.912C-117.75 258.908 -120.231 259.509 -122.761 259.294C-123.518 259.229 -124.376 259.328 -124.766 258.541C-125.174 257.713 -124.717 256.952 -124.233 256.268C-120.912 251.597 -116.013 249.463 -110.684 248.446C-105.62 247.478 -100.756 245.84 -95.759 244.671C-92.6121 243.933 -89.4463 243.162 -86.4166 242.054C-82.1728 240.507 -77.8383 239.262 -73.515 237.999C-67.0775 236.115 -60.7837 233.789 -54.5352 231.406C-49.7241 229.572 -44.7616 228.819 -39.7878 228.055C-37.3407 227.681 -34.8405 228.634 -32.4161 229.288C-31.6898 229.485 -30.9598 229.685 -30.2299 229.867C-27.291 230.589 -25.8688 229.579 -25.8915 226.55C-25.918 223.18 -25.5927 219.9 -24.2575 216.776C-20.3995 207.733 -13.5837 201.881 -4.24134 199.298C4.94598 196.756 14.0576 197.346 22.7381 201.688C24.7995 202.717 26.3162 202.532 27.8594 200.845C33.1283 195.077 39.702 191.771 47.3461 190.655C51.0225 190.118 54.82 190.092 58.4624 190.659C61.1971 191.087 62.884 190.183 64.2683 188.235C66.6323 184.917 69.8132 182.478 72.7105 179.705C76.1865 176.377 80.627 175.235 84.7157 174.652C90.7296 173.794 97.0234 173.491 103.105 175.685C106.305 176.838 109.604 177.671 112.104 180.08C115.239 183.102 118.666 185.852 121.007 189.638C122.399 191.888 123.613 194.139 123.98 196.839C124.222 198.617 126.303 199.404 128.008 198.352C131.666 196.102 135.823 195.228 139.866 194.423C145.664 193.273 151.554 193.515 157.28 195.535C158.645 196.015 160.015 196.677 161.588 196.647C163.233 196.616 164.028 195.988 164.542 194.396C165.926 190.103 167.504 185.912 170.409 182.293C175.405 176.059 181.884 172.262 189.604 170.927C197.127 169.625 204.665 169.977 211.734 173.419C214.719 174.872 217.631 176.479 220.112 178.737C221.493 179.993 223.248 179.997 224.576 178.574C228.036 174.875 231.838 171.679 236.501 169.523C238.865 168.43 241.362 167.874 243.813 167.137C246.339 166.376 248.949 166.293 251.589 166.301C259.373 166.323 266.28 168.843 272.608 173.249C273.795 174.077 274.907 174.947 275.974 175.912C277.018 176.854 278.364 176.903 279.696 176.914C283.898 176.948 288.123 176.623 292.261 177.678C296.618 178.79 300.502 180.927 304.228 183.363C305.733 184.346 306.868 184.32 308.222 183.019C310.163 181.154 311.71 178.945 313.869 177.247C319.535 172.784 325.837 170.121 333.065 169.739C333.693 169.705 334.324 169.731 334.956 169.731C340.3 169.728 340.331 169.75 343.481 165.559C348.599 158.759 355.407 154.795 363.762 153.509C371.089 152.382 378.294 152.991 385.132 155.952C389.792 157.972 393.862 160.96 396.824 165.136C399.585 169.032 401.699 173.283 402.327 178.124C402.751 181.381 403.965 182.485 407.267 182.504C412.812 182.538 418.36 182.508 423.905 182.519C426.099 182.523 426.897 183.189 426.92 184.967C426.943 186.865 426.163 187.595 423.833 187.516C418.375 187.334 412.906 187.319 407.46 186.805C403.613 186.442 402.55 187.176 401.056 190.742C396.495 201.632 388.117 207.676 376.683 209.87C374.046 210.376 371.414 210.127 368.778 210.21C366.773 210.274 365.177 210.898 363.982 212.665C358.444 220.869 350.569 225.525 340.883 226.705C332.043 227.783 323.597 226.202 315.995 221.149C313.185 219.28 312.057 219.545 309.981 222.23C307.398 225.57 304.183 228.131 300.48 230.113C295.271 232.9 289.745 234.077 283.807 234.103C277.596 234.13 271.855 232.791 266.442 229.844C264.559 228.819 262.565 227.775 261.23 226.164C258.798 223.229 255.682 223.149 252.455 223.539C250.628 223.758 248.82 223.732 247.005 223.826C240.995 224.148 234.996 224.632 229.001 225.23C225.945 225.532 222.881 225.831 219.817 226.024C211.924 226.523 204.053 227.382 196.113 227.284C191.567 227.227 187.232 226.508 183.068 224.791C179.917 223.494 178.843 224.621 178.212 227.431C175.413 239.886 167.197 246.846 155.378 250.265C152.446 251.112 149.477 251.317 146.44 251.377C139.132 251.525 131.836 251.203 124.548 250.904C116.393 250.568 108.234 250.178 100.083 249.777C94.7503 249.516 89.4133 249.342 84.0878 249.009C76.0654 248.514 68.028 248.306 59.998 247.928Z" fill="#1064E4"/>
</g>
</g>
<path d="M68.4252 262.078H-89.252C-89.252 262.078 -52.9522 246.912 -26.8617 244.258C-17.2725 243.283 12.4631 241.225 23.0505 246.154C25.2361 247.17 27.6976 245.721 29.921 243.507C34.3072 239.139 36.6629 233.126 36.6629 226.926V213.823C36.6629 213.25 37.1242 212.788 37.6952 212.788H70.9851C71.6544 212.788 72.1951 213.341 72.18 214.012L71.8435 230.601C78.1506 232.075 91.4869 235.628 97.1626 240.466C104.725 246.912 106.238 241.225 106.238 241.225L107.277 224.526C107.33 223.685 108.03 223.025 108.873 223.025H128.093C128.615 223.025 129.106 223.275 129.409 223.7L135.296 231.901C135.568 232.28 136.007 232.504 136.472 232.504H142.976C143.57 232.504 144.05 232.022 144.05 231.427V224.542C144.05 224.542 144.05 222.267 147.831 223.025C151.261 223.711 165.883 208.188 168.579 205.288C168.855 204.992 169.237 204.825 169.641 204.825H208.864C209.246 204.825 209.616 204.984 209.877 205.265L221.883 218.009C222.162 218.304 222.552 218.475 222.96 218.475H255.498C255.804 218.475 256.091 218.35 256.303 218.13L287.854 185.022C288.262 184.593 288.829 184.351 289.419 184.351H425.373L425.623 265.726L68.4252 262.078Z" fill="#5B90DD"/>
<path d="M259.355 254.172V236.911C259.355 236.911 260.122 233.075 263.956 233.075C267.789 233.075 268.939 236.144 268.939 236.144V239.213C268.939 239.213 273.923 237.295 273.923 241.131C273.923 244.966 269.322 245.35 269.322 245.35V254.172H259.355Z" fill="#27497C"/>
<path d="M6.33683 256.553V236.113C6.33683 236.113 5.59073 234.978 7.45599 233.085C9.32126 231.193 9.32126 231.571 9.32126 231.571V207.725C9.32126 207.725 9.69431 203.94 13.7979 203.94C17.9015 203.94 18.2745 207.725 18.2745 207.725V231.571C18.2745 231.571 19.7667 231.571 20.5128 232.707C21.259 233.842 21.259 236.113 21.259 236.113V257.688L6.33683 256.553Z" fill="#27497C"/>
<path d="M70.9863 256.684V233.503C70.9863 233.013 71.0993 232.531 71.3329 232.102C71.8792 231.096 73.2166 229.559 76.2607 229.559C80.7815 229.559 81.1582 233.703 81.1582 233.703L81.535 256.684H70.9863Z" fill="#27497C"/>
<path d="M166.452 230.04C168.3 230.449 168.346 237.232 168.346 237.232H172.891L174.407 232.69V213.005C174.407 213.005 175.922 208.462 179.71 208.462C183.498 208.462 185.013 212.247 185.013 212.247V260.703H173.27L172.891 244.803L166.778 245.163C166.569 245.174 166.361 245.099 166.209 244.955C165.27 244.061 161.906 240.753 161.906 239.125C161.906 237.232 161.906 231.554 161.906 231.554C161.906 231.554 163.043 229.283 166.452 230.04Z" fill="#27497C"/>
<path d="M350 254H-36V496H350V254Z" fill="#27497C"/>
<g opacity="0.4" filter="url(#filter0_f_132_1020)">
<path d="M6.12674 254.172L-1.27025 272.624C-1.27025 272.624 -2.42048 273.584 -1.84915 276.301C-1.27782 279.018 -1.09242 278.607 -1.09242 278.607L-12.7044 304.41C-12.7044 304.41 -14.2481 308.638 -10.9601 310.107C-7.67215 311.573 -5.53062 307.613 -5.53062 307.613L6.08134 281.806C6.08134 281.806 7.27697 282.341 8.42719 281.377C9.57741 280.416 10.6822 277.959 10.6822 277.959L21.2613 254.172H6.12674Z" fill="#283B4C"/>
</g>
<g opacity="0.4" filter="url(#filter1_f_132_1020)">
<path d="M70.8268 254.172L58.7684 279.922C58.5149 280.48 58.3673 281.075 58.3598 281.663C58.3446 283.031 58.7722 285.337 61.5607 286.588C65.7 288.445 68.182 283.879 68.182 283.879L82.1777 254.172H70.8268Z" fill="#283B4C"/>
</g>
<g opacity="0.4" filter="url(#filter2_f_132_1020)">
<path d="M331.519 254.172L326.135 266.305C326.135 266.305 323.517 266.602 324.512 268.995C325.511 271.391 327.13 268.697 327.13 268.697L319.105 286.588C319.105 286.588 317.83 289.432 320.936 290.815C324.046 292.198 325.159 288.792 325.159 288.792L332.839 270.751C332.839 270.751 332.62 273.091 335.257 271.829C337.902 270.563 341.735 254.172 341.735 254.172H331.519Z" fill="#283B4C"/>
</g>
<g opacity="0.4" filter="url(#filter3_f_132_1020)">
<path d="M259.254 254.172L250.408 273.486C250.408 273.486 249.125 278.121 252.568 279.681C256.015 281.237 258.626 278.245 258.626 278.245L260.203 274.786C260.203 274.786 263.696 278.973 265.667 274.651C267.638 270.329 263.703 268.023 263.703 268.023L269.091 254.172H259.254Z" fill="#283B4C"/>
</g>
<path d="M203.3 35.1068C203.3 49.6172 196.193 55.7795 185.942 58.3883C194.47 54.0028 200.151 47.3817 200.151 39.1549C200.151 26.1108 183.958 8.56869 158.995 8.56869C144.848 8.56869 134.386 13.3006 127.977 20.205C133.779 11.1685 145.375 4.52051 162.143 4.52051C187.107 4.52051 203.3 22.0626 203.3 35.1068Z" fill="#247DFF"/>
<path d="M201.501 37.3558C201.501 52.7569 181.584 62.5445 160.344 62.5445C139.105 62.5445 121.887 52.3071 121.887 36.906C121.887 21.5049 135.381 6.76953 160.344 6.76953C185.308 6.76953 201.501 24.3116 201.501 37.3558Z" fill="#27497C"/>
<path d="M295.957 66.5927C295.957 69.8222 294.117 72.9438 290.681 75.89C275.756 88.7137 230.754 98.3484 175.996 99.7068H175.924C171.538 99.8192 167.094 99.8777 162.592 99.8777C159.672 99.8777 156.771 99.8552 153.902 99.8057C152.35 99.7832 150.807 99.7517 149.273 99.7158C94.5552 98.3574 49.5574 88.7497 34.5657 75.9484C31.4711 73.3036 29.6539 70.5239 29.2985 67.6542C29.2491 67.3033 29.2266 66.948 29.2266 66.5927C29.2266 48.2094 88.9372 33.3076 162.592 33.3076C231.109 33.3076 287.563 46.2033 295.102 62.8009C295.664 64.0468 295.957 65.3107 295.957 66.5927Z" fill="#1064E5"/>
<path d="M295.957 66.5927C295.957 67.0469 295.921 67.4967 295.844 67.942C293.01 50.184 234.433 36.0064 162.592 36.0064C90.7499 36.0064 32.1727 50.184 29.339 67.942C29.2625 67.4967 29.2266 67.0469 29.2266 66.5927C29.2266 48.2094 88.9372 33.3076 162.592 33.3076C236.246 33.3076 295.957 48.2094 295.957 66.5927Z" fill="#247DFF"/>
<path d="M295.845 67.9425C295.809 68.1674 295.764 68.3923 295.706 68.6172C291.518 51.174 233.521 37.3562 162.592 37.3562C91.6638 37.3562 33.6669 51.174 29.4793 68.6172C29.4208 68.3923 29.3758 68.1674 29.3398 67.9425C32.1736 50.1845 90.7507 36.0068 162.592 36.0068C234.434 36.0068 293.011 50.1845 295.845 67.9425Z" fill="#27497C"/>
<path d="M162.591 83.2358C195.755 83.2358 222.639 77.8992 222.639 71.3161C222.639 64.7331 195.755 59.3965 162.591 59.3965C129.427 59.3965 102.543 64.7331 102.543 71.3161C102.543 77.8992 129.427 83.2358 162.591 83.2358Z" fill="#247DFF"/>
<path d="M162.591 79.6367C181.471 79.6367 196.776 76.4146 196.776 72.4399C196.776 68.4653 181.471 65.2432 162.591 65.2432C143.711 65.2432 128.406 68.4653 128.406 72.4399C128.406 76.4146 143.711 79.6367 162.591 79.6367Z" fill="#D8F1F0"/>
<path d="M135.828 37.8058L139.876 56.2476H186.205L189.354 37.8058L163.491 36.9062L135.828 37.8058Z" fill="#27497C"/>
<path d="M175.924 99.7072C171.539 99.8196 167.095 99.8781 162.592 99.8781C159.673 99.8781 156.772 99.8556 153.902 99.8061L155.211 86.834H174.917L175.924 99.7072Z" fill="#27497C"/>
<path d="M295.596 67.0742C294.449 65.0231 293.109 63.1159 291.701 61.1233C289.056 59.3511 286.294 57.7499 283.564 56.288C283.42 56.2116 283.294 56.1261 283.182 56.0361C282.975 57.5205 281.801 59.4906 277.514 60.75C270.929 62.6886 231.635 62.999 231.635 62.999C231.635 62.999 242.43 66.1476 243.779 72.4448C245.129 78.7419 234.783 81.4407 234.783 81.4407C234.783 81.4407 259.09 81.1034 281.113 77.8423C284.913 77.2801 288.098 76.5829 290.68 75.8947C293.554 73.4343 295.304 70.848 295.803 68.1807C295.762 67.8028 295.699 67.434 295.596 67.0742Z" fill="#27497C"/>
<path d="M90.2464 81.4358C90.2464 81.4358 65.9394 81.0985 43.9173 77.8374C40.2199 77.2887 37.1073 76.6185 34.566 75.9483C31.4714 73.3035 29.6542 70.5237 29.2988 67.654C29.3348 67.4606 29.3753 67.2672 29.4293 67.0738C30.5718 65.0227 31.9167 63.1156 33.3245 61.1185C35.9738 59.3508 38.7311 57.745 41.4614 56.2831C41.6053 56.2067 41.7312 56.1212 41.8437 56.0312C42.0506 57.5156 43.2291 59.4857 47.5156 60.7451C54.1007 62.6838 93.395 62.9941 93.395 62.9941C93.395 62.9941 82.5999 66.1427 81.2505 72.4399C79.9011 78.737 90.2464 81.4358 90.2464 81.4358Z" fill="#27497C"/>
<path opacity="0.7" d="M128.434 72.585L57.5859 275.387H264.043L196.749 72.585H128.434Z" fill="#D8F1F0"/>
<path d="M161.039 283.034C218.051 283.034 264.268 279.51 264.268 275.162C264.268 270.815 218.051 267.291 161.039 267.291C104.028 267.291 57.8105 270.815 57.8105 275.162C57.8105 279.51 104.028 283.034 161.039 283.034Z" fill="#1064E5"/>
<path opacity="0.47" d="M96.2682 280.334C107.447 280.334 116.509 279.227 116.509 277.861C116.509 276.494 107.447 275.387 96.2682 275.387C85.0895 275.387 76.0273 276.494 76.0273 277.861C76.0273 279.227 85.0895 280.334 96.2682 280.334Z" fill="#27497C"/>
<path d="M98.2339 273.687L101.679 261.781L74.0527 253.779L77.1878 242.952L111.381 218.321L126.328 222.648L117.013 254.827L124.525 257.004L120.44 267.214L113.972 265.343L110.527 277.249L98.2339 273.687ZM107.216 242.669C108.165 239.39 109.897 233.664 110.828 230.857C107.545 233.686 100.604 239.147 89.9396 246.987L104.724 251.269L107.216 242.669Z" fill="white"/>
<path opacity="0.47" d="M223.486 278.999C236.51 278.298 247.008 276.623 246.934 275.259C246.861 273.894 236.244 273.357 223.22 274.059C210.196 274.76 199.698 276.435 199.772 277.8C199.845 279.164 210.463 279.701 223.486 278.999Z" fill="#27497C"/>
<path opacity="0.47" d="M161.174 279.66C170.29 279.66 177.681 278.653 177.681 277.411C177.681 276.169 170.29 275.162 161.174 275.162C152.057 275.162 144.666 276.169 144.666 277.411C144.666 278.653 152.057 279.66 161.174 279.66Z" fill="#27497C"/>
<path d="M187.577 221.286C187.577 239.808 180.034 254.045 160.944 254.045C142.912 254.045 134.244 239.844 134.244 221.839C134.244 204.31 142.84 189.688 161.133 189.688C178.801 189.688 187.577 204.131 187.577 221.286ZM149.506 221.677C149.506 231.582 151.728 242.386 161.102 242.386C170.597 242.386 172.378 232.297 172.378 221.367C172.378 211.988 170.565 201.27 161.205 201.27C152.061 201.274 149.506 210.671 149.506 221.677Z" fill="white"/>
<path d="M224.776 276.516L221.655 264.2L193.075 271.447L190.236 260.247L207.711 220.741L223.171 216.823L231.609 250.108L239.381 248.138L241.059 259.284L234.366 260.98L237.488 273.295L224.776 276.516ZM216.644 244.432C215.785 241.04 214.35 235.081 213.716 232.112C212.281 236.313 208.97 244.738 203.604 257.206L218.897 253.329L216.644 244.432Z" fill="white"/>
<defs>
<filter id="filter0_f_132_1020" x="-17.0664" y="250.172" width="42.3281" height="64.2607" filterUnits="userSpaceOnUse" color-interpolation-filters="sRGB">
<feFlood flood-opacity="0" result="BackgroundImageFix"/>
<feBlend mode="normal" in="SourceGraphic" in2="BackgroundImageFix" result="shape"/>
<feGaussianBlur stdDeviation="2" result="effect1_foregroundBlur_132_1020"/>
</filter>
<filter id="filter1_f_132_1020" x="54.3594" y="250.172" width="31.8184" height="40.8604" filterUnits="userSpaceOnUse" color-interpolation-filters="sRGB">
<feFlood flood-opacity="0" result="BackgroundImageFix"/>
<feBlend mode="normal" in="SourceGraphic" in2="BackgroundImageFix" result="shape"/>
<feGaussianBlur stdDeviation="2" result="effect1_foregroundBlur_132_1020"/>
</filter>
<filter id="filter2_f_132_1020" x="314.846" y="250.172" width="30.8887" height="44.9736" filterUnits="userSpaceOnUse" color-interpolation-filters="sRGB">
<feFlood flood-opacity="0" result="BackgroundImageFix"/>
<feBlend mode="normal" in="SourceGraphic" in2="BackgroundImageFix" result="shape"/>
<feGaussianBlur stdDeviation="2" result="effect1_foregroundBlur_132_1020"/>
</filter>
<filter id="filter3_f_132_1020" x="246.174" y="250.172" width="26.918" height="33.958" filterUnits="userSpaceOnUse" color-interpolation-filters="sRGB">
<feFlood flood-opacity="0" result="BackgroundImageFix"/>
<feBlend mode="normal" in="SourceGraphic" in2="BackgroundImageFix" result="shape"/>
<feGaussianBlur stdDeviation="2" result="effect1_foregroundBlur_132_1020"/>
</filter>
</defs>
</svg>
