<svg width="24" height="24" viewBox="0 0 24 24" fill="none" xmlns="http://www.w3.org/2000/svg">
<path fill-rule="evenodd" clip-rule="evenodd" d="M23.6095 0.390524C24.1302 0.911223 24.1302 1.75544 23.6095 2.27614L2.27614 23.6095C1.75544 24.1302 0.911223 24.1302 0.390524 23.6095C-0.130175 23.0888 -0.130175 22.2446 0.390524 21.7239L21.7239 0.390524C22.2446 -0.130175 23.0888 -0.130175 23.6095 0.390524Z" fill="#1064E5"/>
<path fill-rule="evenodd" clip-rule="evenodd" d="M0.390522 0.390524C-0.130177 0.911223 -0.130177 1.75544 0.390522 2.27614L21.7239 23.6095C22.2446 24.1302 23.0888 24.1302 23.6095 23.6095C24.1302 23.0888 24.1302 22.2446 23.6095 21.7239L2.27614 0.390524C1.75544 -0.130175 0.911224 -0.130175 0.390522 0.390524Z" fill="#1064E5"/>
</svg>
