<svg width="32" height="32" viewBox="0 0 32 32" fill="none" xmlns="http://www.w3.org/2000/svg">
<path fill-rule="evenodd" clip-rule="evenodd" d="M32 32H25.8462V20.7934C25.8462 17.7192 24.5431 16.0044 22.2062 16.0044C19.6631 16.0044 18.1538 17.7913 18.1538 20.7934V32H12V11.1849H18.1538V13.5258C18.1538 13.5258 20.0846 10 24.4354 10C28.7877 10 32 12.7636 32 18.483C32 24.2007 32 32 32 32ZM3.00061 6C1.34303 6 0 4.65637 0 2.99939C0 1.34363 1.34303 0 3.00061 0C4.65697 0 6 1.34363 6 2.99939C6.00123 4.65637 4.65697 6 3.00061 6ZM0 32H6V12H0V32Z" fill="#1064E5"/>
</svg>
