<svg width="242" height="166" viewBox="0 0 242 166" fill="none" xmlns="http://www.w3.org/2000/svg">
<mask id="path-1-inside-1_93_1888" fill="white">
<path d="M237.674 109.019C237.749 108.981 237.822 108.939 237.895 108.897C237.957 108.862 238.021 108.83 238.081 108.792C238.152 108.748 238.219 108.699 238.287 108.652C238.347 108.61 238.408 108.571 238.466 108.526C238.529 108.477 238.588 108.425 238.648 108.374C238.707 108.324 238.767 108.276 238.823 108.223C238.88 108.17 238.931 108.113 238.985 108.058C239.04 108.001 239.096 107.947 239.149 107.886C239.205 107.823 239.254 107.755 239.307 107.689C239.351 107.633 239.397 107.579 239.44 107.52C239.517 107.412 239.589 107.299 239.657 107.185C239.669 107.164 239.683 107.146 239.695 107.125C239.708 107.103 239.718 107.08 239.729 107.058C239.794 106.943 239.855 106.827 239.909 106.707C239.941 106.636 239.966 106.565 239.994 106.494C240.023 106.42 240.055 106.347 240.081 106.272C240.108 106.192 240.129 106.11 240.152 106.029C240.171 105.961 240.193 105.893 240.209 105.823C240.229 105.743 240.241 105.661 240.255 105.58C240.268 105.508 240.283 105.436 240.293 105.363C240.304 105.284 240.308 105.206 240.315 105.127C240.321 105.051 240.33 104.974 240.332 104.897C240.335 104.818 240.331 104.74 240.33 104.662C240.328 104.585 240.33 104.508 240.324 104.431C240.318 104.339 240.305 104.249 240.294 104.159C240.286 104.095 240.282 104.031 240.271 103.967C240.246 103.81 240.213 103.655 240.171 103.502L213.777 4.99757C213.095 2.45184 210.48 0.94179 207.934 1.62392L62.7661 40.5215C62.7256 40.5324 62.6876 40.5478 62.6474 40.5599C62.5601 40.5859 62.4739 40.613 62.3886 40.6438C62.3206 40.6679 62.254 40.6943 62.1876 40.722C62.1116 40.7529 62.0367 40.7855 61.9624 40.8205C61.8928 40.853 61.8244 40.8878 61.7569 40.9237C61.6884 40.9605 61.6202 40.9985 61.5533 41.0388C61.4869 41.0784 61.4221 41.1194 61.3583 41.1615C61.293 41.2054 61.2281 41.2504 61.165 41.2976C61.1051 41.342 61.0466 41.3867 60.9893 41.4336C60.9256 41.4856 60.8631 41.5399 60.8015 41.5952C60.7491 41.6429 60.698 41.6908 60.6481 41.7404C60.5877 41.8001 60.5291 41.8618 60.4716 41.9247C60.4243 41.9769 60.3786 42.0299 60.3337 42.0835C60.2809 42.147 60.2292 42.2122 60.1794 42.2796C60.134 42.3411 60.0901 42.4036 60.0472 42.4671C60.0049 42.5305 59.9633 42.5937 59.9236 42.6596C59.8784 42.7343 59.8364 42.8108 59.7951 42.8877C59.7744 42.9262 59.7509 42.9614 59.7317 43.0002C59.72 43.023 59.7126 43.0468 59.7015 43.0695C59.6617 43.152 59.6264 43.2365 59.5913 43.3216C59.5658 43.3838 59.5391 43.4463 59.5163 43.509C59.4869 43.5907 59.4615 43.6732 59.4364 43.7563C59.4158 43.8244 59.3938 43.8922 59.3766 43.9607C59.3563 44.0399 59.3414 44.1196 59.3254 44.1997C59.3107 44.2727 59.2948 44.3462 59.2835 44.4196C59.272 44.4971 59.2649 44.5761 59.2574 44.6539C59.2496 44.7304 59.241 44.8064 59.237 44.8826C59.2332 44.9593 59.234 45.0362 59.2336 45.1133C59.2337 45.1923 59.2324 45.271 59.2358 45.3498C59.239 45.4234 59.2475 45.4969 59.254 45.5702C59.2619 45.6537 59.2697 45.7372 59.2813 45.8197C59.2911 45.8882 59.3055 45.9568 59.3187 46.0257C59.3356 46.1134 59.3532 46.2009 59.3751 46.2879C59.3813 46.3132 59.3848 46.3386 59.3915 46.3638L67.0067 74.7841C67.6889 77.3299 70.3044 78.8399 72.8501 78.1578C75.3958 77.4757 76.9059 74.8602 76.2238 72.3145L71.3511 54.1293L122.045 79.4268C121.871 79.6347 121.71 79.8564 121.569 80.0988L92.0219 131.276L83.9068 100.991C83.2247 98.4448 80.6092 96.9348 78.0635 97.6169C75.5178 98.299 74.0077 100.915 74.6898 103.46L76.1986 109.091L52.388 115.471C49.8423 116.153 48.3323 118.769 49.0144 121.315C49.6965 123.86 52.312 125.37 54.8577 124.688L78.6683 118.308L85.7861 144.872C86.4683 147.418 89.0838 148.928 91.6295 148.246L236.797 109.348C236.949 109.308 237.099 109.259 237.246 109.204C237.315 109.178 237.379 109.146 237.446 109.118C237.523 109.085 237.599 109.055 237.674 109.019ZM227.974 94.849L176.795 65.3017C176.763 65.2828 176.729 65.2687 176.696 65.2512L200.142 31.3762C201.641 29.2095 201.101 26.2379 198.934 24.7381C196.769 23.2391 193.797 23.7786 192.296 25.9464L152.233 83.8291L77.3926 46.4818L205.795 12.0765L227.974 94.849ZM129.834 84.8711C130.075 84.4543 130.244 84.0166 130.347 83.5713L151.673 94.2131C152.751 94.7507 153.946 94.8455 155.038 94.5527C156.099 94.2685 157.061 93.6201 157.727 92.6593L171.3 73.0493C171.522 73.24 171.762 73.4148 172.024 73.5664L223.202 103.114L100.287 136.049L129.834 84.8711Z"/>
</mask>
<path d="M237.674 109.019C237.749 108.981 237.822 108.939 237.895 108.897C237.957 108.862 238.021 108.83 238.081 108.792C238.152 108.748 238.219 108.699 238.287 108.652C238.347 108.61 238.408 108.571 238.466 108.526C238.529 108.477 238.588 108.425 238.648 108.374C238.707 108.324 238.767 108.276 238.823 108.223C238.88 108.17 238.931 108.113 238.985 108.058C239.04 108.001 239.096 107.947 239.149 107.886C239.205 107.823 239.254 107.755 239.307 107.689C239.351 107.633 239.397 107.579 239.44 107.52C239.517 107.412 239.589 107.299 239.657 107.185C239.669 107.164 239.683 107.146 239.695 107.125C239.708 107.103 239.718 107.08 239.729 107.058C239.794 106.943 239.855 106.827 239.909 106.707C239.941 106.636 239.966 106.565 239.994 106.494C240.023 106.42 240.055 106.347 240.081 106.272C240.108 106.192 240.129 106.11 240.152 106.029C240.171 105.961 240.193 105.893 240.209 105.823C240.229 105.743 240.241 105.661 240.255 105.58C240.268 105.508 240.283 105.436 240.293 105.363C240.304 105.284 240.308 105.206 240.315 105.127C240.321 105.051 240.33 104.974 240.332 104.897C240.335 104.818 240.331 104.74 240.33 104.662C240.328 104.585 240.33 104.508 240.324 104.431C240.318 104.339 240.305 104.249 240.294 104.159C240.286 104.095 240.282 104.031 240.271 103.967C240.246 103.81 240.213 103.655 240.171 103.502L213.777 4.99757C213.095 2.45184 210.48 0.94179 207.934 1.62392L62.7661 40.5215C62.7256 40.5324 62.6876 40.5478 62.6474 40.5599C62.5601 40.5859 62.4739 40.613 62.3886 40.6438C62.3206 40.6679 62.254 40.6943 62.1876 40.722C62.1116 40.7529 62.0367 40.7855 61.9624 40.8205C61.8928 40.853 61.8244 40.8878 61.7569 40.9237C61.6884 40.9605 61.6202 40.9985 61.5533 41.0388C61.4869 41.0784 61.4221 41.1194 61.3583 41.1615C61.293 41.2054 61.2281 41.2504 61.165 41.2976C61.1051 41.342 61.0466 41.3867 60.9893 41.4336C60.9256 41.4856 60.8631 41.5399 60.8015 41.5952C60.7491 41.6429 60.698 41.6908 60.6481 41.7404C60.5877 41.8001 60.5291 41.8618 60.4716 41.9247C60.4243 41.9769 60.3786 42.0299 60.3337 42.0835C60.2809 42.147 60.2292 42.2122 60.1794 42.2796C60.134 42.3411 60.0901 42.4036 60.0472 42.4671C60.0049 42.5305 59.9633 42.5937 59.9236 42.6596C59.8784 42.7343 59.8364 42.8108 59.7951 42.8877C59.7744 42.9262 59.7509 42.9614 59.7317 43.0002C59.72 43.023 59.7126 43.0468 59.7015 43.0695C59.6617 43.152 59.6264 43.2365 59.5913 43.3216C59.5658 43.3838 59.5391 43.4463 59.5163 43.509C59.4869 43.5907 59.4615 43.6732 59.4364 43.7563C59.4158 43.8244 59.3938 43.8922 59.3766 43.9607C59.3563 44.0399 59.3414 44.1196 59.3254 44.1997C59.3107 44.2727 59.2948 44.3462 59.2835 44.4196C59.272 44.4971 59.2649 44.5761 59.2574 44.6539C59.2496 44.7304 59.241 44.8064 59.237 44.8826C59.2332 44.9593 59.234 45.0362 59.2336 45.1133C59.2337 45.1923 59.2324 45.271 59.2358 45.3498C59.239 45.4234 59.2475 45.4969 59.254 45.5702C59.2619 45.6537 59.2697 45.7372 59.2813 45.8197C59.2911 45.8882 59.3055 45.9568 59.3187 46.0257C59.3356 46.1134 59.3532 46.2009 59.3751 46.2879C59.3813 46.3132 59.3848 46.3386 59.3915 46.3638L67.0067 74.7841C67.6889 77.3299 70.3044 78.8399 72.8501 78.1578C75.3958 77.4757 76.9059 74.8602 76.2238 72.3145L71.3511 54.1293L122.045 79.4268C121.871 79.6347 121.71 79.8564 121.569 80.0988L92.0219 131.276L83.9068 100.991C83.2247 98.4448 80.6092 96.9348 78.0635 97.6169C75.5178 98.299 74.0077 100.915 74.6898 103.46L76.1986 109.091L52.388 115.471C49.8423 116.153 48.3323 118.769 49.0144 121.315C49.6965 123.86 52.312 125.37 54.8577 124.688L78.6683 118.308L85.7861 144.872C86.4683 147.418 89.0838 148.928 91.6295 148.246L236.797 109.348C236.949 109.308 237.099 109.259 237.246 109.204C237.315 109.178 237.379 109.146 237.446 109.118C237.523 109.085 237.599 109.055 237.674 109.019ZM227.974 94.849L176.795 65.3017C176.763 65.2828 176.729 65.2687 176.696 65.2512L200.142 31.3762C201.641 29.2095 201.101 26.2379 198.934 24.7381C196.769 23.2391 193.797 23.7786 192.296 25.9464L152.233 83.8291L77.3926 46.4818L205.795 12.0765L227.974 94.849ZM129.834 84.8711C130.075 84.4543 130.244 84.0166 130.347 83.5713L151.673 94.2131C152.751 94.7507 153.946 94.8455 155.038 94.5527C156.099 94.2685 157.061 93.6201 157.727 92.6593L171.3 73.0493C171.522 73.24 171.762 73.4148 172.024 73.5664L223.202 103.114L100.287 136.049L129.834 84.8711Z" fill="#1064E5" stroke="#DEEEFC" stroke-width="3" mask="url(#path-1-inside-1_93_1888)"/>
<path d="M96.3486 87.0006L18.5159 107.856C16.3703 108.431 14.166 107.158 13.5911 105.013C13.0162 102.867 14.2888 100.663 16.4345 100.088L94.2672 79.2325C96.4128 78.6576 98.6171 79.9302 99.192 82.0759C99.7669 84.2215 98.4943 86.4257 96.3486 87.0006Z" fill="#1064E5" stroke="#DEEEFC" stroke-width="1.5"/>
<path d="M54.7235 70.934L19.7757 80.2982C17.63 80.8732 15.4258 79.6006 14.8509 77.4549C14.276 75.3093 15.5486 73.105 17.6942 72.5301L52.642 63.1659C54.7877 62.591 56.9919 63.8636 57.5668 66.0092C58.1418 68.1548 56.8691 70.3591 54.7235 70.934Z" fill="#1064E5" stroke="#DEEEFC" stroke-width="1.5"/>
<path d="M28.0966 143.613L61.8923 134.557C64.0379 133.982 66.2421 135.255 66.8171 137.4C67.392 139.546 66.1194 141.75 63.9737 142.325L30.178 151.381C28.0324 151.956 25.8282 150.683 25.2532 148.537C24.6783 146.392 25.9509 144.188 28.0966 143.613Z" fill="#1064E5" stroke="#DEEEFC" stroke-width="1.5"/>
</svg>
