<svg width="28" height="25" viewBox="0 0 28 25" fill="none" xmlns="http://www.w3.org/2000/svg">
<path fill-rule="evenodd" clip-rule="evenodd" d="M8.806 24.8889C19.3718 24.8889 25.151 15.3123 25.151 7.0085C25.151 6.73589 25.151 6.46481 25.1342 6.19526C26.2584 5.30699 27.2286 4.2043 28 2.94233C26.9528 3.45079 25.8398 3.78466 24.7016 3.93169C25.9 3.14602 26.7974 1.91163 27.2272 0.455159C26.0988 1.18722 24.8654 1.70334 23.5788 1.98054C21.4032 -0.549512 17.7646 -0.672033 15.4504 1.70794C13.9594 3.24251 13.3252 5.53059 13.7886 7.71299C9.17 7.45876 4.8664 5.07267 1.9488 1.1474C0.4242 4.01899 1.204 7.69155 3.7282 9.53549C2.814 9.50639 1.9194 9.23684 1.12 8.74982V8.82946C1.1214 11.8205 3.0492 14.3965 5.7288 14.9892C4.8832 15.2419 3.9956 15.2787 3.136 15.0964C3.8878 17.6571 6.0452 19.4107 8.5022 19.4612C6.468 21.2102 3.955 22.1597 1.3678 22.1567C0.9114 22.1551 0.455 22.126 0 22.0663C2.6278 23.9103 5.684 24.8889 8.806 24.8843" fill="#1064E5"/>
</svg>
